<?xml version="1.0" encoding="UTF-8"?><svg id="Ebene_1" xmlns="http://www.w3.org/2000/svg" viewBox="0 0 845.75 990"><defs><style>.cls-1{fill:#000001;}.cls-2{fill:#0988f7;}.cls-3{fill:#a9becd;}.cls-4{fill:#96bae9;}.cls-5{fill:#649dcd;}.cls-6{fill:#b0c4da;}.cls-7{fill:#a7bbcc;}.cls-8{fill:#8cadc8;}.cls-9{fill:#000102;}.cls-10{fill:#7bbafe;}.cls-11{fill:#025ebd;}.cls-12{fill:#a6bacc;}.cls-13{fill:#6092c6;}.cls-14{fill:#86cafd;}.cls-15{fill:#010102;}.cls-16{fill:#b3b3b4;}.cls-17{fill:#014896;}.cls-18{fill:#d8f1fc;}.cls-19{fill:#01172d;}.cls-20{fill:#002a52;}.cls-21{fill:#8eaabd;}.cls-22{fill:#0078fe;}.cls-23{fill:#003e7d;}.cls-24{fill:#cbe4fe;}.cls-25{fill:#004e9d;}.cls-26{fill:#7bbfe6;}.cls-27{fill:#004d9c;}.cls-28{fill:#92b6d4;}.cls-29{fill:#094b94;}.cls-30{fill:#91a8b6;}.cls-31{fill:#002952;}.cls-32{fill:#002a53;}.cls-33{fill:#93a8b8;}.cls-34{fill:#000002;}.cls-35{fill:#a3bcdb;}.cls-36{fill:#012b53;}.cls-37{fill:#96adba;}.cls-38{fill:#004c9d;}.cls-39{fill:#9ab9c4;}.cls-40{fill:#02172d;}.cls-41{fill:#c4c3c3;}.cls-42{fill:#82cbfd;}.cls-43{fill:#84c9fa;}.cls-44{fill:#6aa0cd;}.cls-45{fill:#d5f1fc;}.cls-46{fill:#acbdc7;}.cls-47{fill:#b8c7d2;}.cls-48{fill:#a8bbcc;}.cls-49{fill:#7abbfe;}.cls-50{fill:#0686f9;}.cls-51{fill:#9fbfda;}.cls-52{fill:#98aec1;}.cls-53{fill:#6195c8;}.cls-54{fill:#68a0d1;}.cls-55{fill:#a2b6c2;}.cls-56{fill:#8ea7b8;}.cls-57{fill:#002a51;}.cls-58{fill:#cce4fe;}.cls-59{fill:#b0bcc3;}.cls-60{fill:#003a77;}.cls-61{fill:#01162d;}.cls-62{fill:#002b53;}.cls-63{fill:#003d7e;}.cls-64{fill:#004e9c;}.cls-65{fill:#bebfbe;}.cls-66{fill:silver;}.cls-67{fill:#639ed3;}.cls-68{fill:#003c7d;}.cls-69{fill:#0079fe;}.cls-70{fill:#002951;}.cls-71{fill:#90a3b6;}.cls-72{fill:#acc1d4;}.cls-73{fill:#93b5d2;}.cls-74{fill:#5996dc;}.cls-75{fill:#8ebce7;}.cls-76{fill:#9caeb5;}.cls-77{fill:#93b4d7;}.cls-78{fill:#003e7f;}.cls-79{fill:#01172e;}.cls-80{fill:#0785f6;}.cls-81{fill:#a3b4c1;}.cls-82{fill:#004d9e;}.cls-83{fill:#03182c;}.cls-84{fill:#aebece;}.cls-85{fill:#004a9d;}.cls-86{fill:#01172c;}.cls-87{fill:#002852;}.cls-88{fill:#76b0ed;}.cls-89{fill:#659ad0;}.cls-90{fill:#90a7b7;}.cls-91{fill:#004b9c;}.cls-92{fill:#d6ecf9;}.cls-93{fill:#b6c7d2;}.cls-94{fill:#003e7e;}.cls-95{fill:#aec4d7;}.cls-96{fill:#003d7d;}.cls-97{fill:#74aeeb;}.cls-98{fill:#93a7b8;}.cls-99{fill:#bcbcbc;}.cls-100{fill:#b3b4b4;}.cls-101{fill:#94aabe;}.cls-102{fill:#02172c;}.cls-103{fill:#002950;}.cls-104{fill:#9aadbf;}.cls-105{fill:#96a8bb;}.cls-106{fill:#9badc0;}.cls-107{fill:#6ba4de;}.cls-108{fill:#003f7f;}.cls-109{fill:#004ea0;}.cls-110{fill:#00152b;}.cls-111{fill:#fdfdfd;}.cls-112{fill:#aebdc3;}.cls-113{fill:#90b1d2;}.cls-114{fill:#afb9be;}</style></defs><path class="cls-1" d="M150.87,795.58c-4.92-.47-12.69-2.9-17.25-4.97-52.37-23.71-5.42-90.33,12.84-122.62-.05-9.67-9.19-17.9-18.55-18.38-8.09-.41-22.66,8.39-28.48,13.9-4.09,3.87-8.11,13.64-15.21,6.99-7.74-7.24-1.25-27.79-19.63-25.33-10.9,1.46-25.96,16.05-32.73,24.41-4.54,5.6-9.58,17.12-15.89,19.66-14.71,5.92-16.37-15.13-15.89-24.78,1.42-28.77,20.9-64.76,39.7-86,20.12-22.74,60.62-66.35,94.51-50.69,10.15,4.69,16.43,17.15,23.57,25.31,13.4,15.31,29.44,24.96,49.84,27.93,6.86-22.5,13.29-45.72,24.75-66.34-22.43-13.68-42.96-30.37-60.95-49.5-.98-1.04-5.59-7.13-6.1-7.28-1.45-.44-2.64,1.58-3.83,2.4-20.82,14.2-56.44,18.87-71.19-6.05-15.07-25.46,11.43-54.93,36.07-60.19l-3.57-9.24c-24.47,10.54-65.07,4.89-75.46-22.82-13.34-35.56,31.05-63.86,62.52-59.66l-.07-6.92c-29.16-6.61-57.03-37.51-39.4-67.78,12.4-21.3,42.68-28.57,65.49-23.35l18.94-29.33c-9.59-22.76-19.02-47.45-21.47-72.29-8.52-86.24,49.4-111.92,118.65-67.87,15.85,10.08,30.12,22.77,43.24,36.12,1.09,1.11,2.39,4.05,3.99,4.02,6.26-1.73,12.5-3.82,18.82-5.31,2.14-.5,4.09,0,6.03-.32,3.3-.54,7.83-3.16,11.63-3.28C341.7,38.64,360.67-2.15,394.05.09c28.75,1.92,44.66,40.81,48.02,65.3l35.92,8.27,1.76-.49c25.75-28.21,70.73-62.68,111.07-59.71,71.37,5.25,56.78,106.46,35.54,151.06-.81,1.7-1.37,4.19-3.45,4.5v.89c8.64,10.31,15.68,21.91,22.16,33.69,24.17-4.59,57.34,6.61,64.97,32.18,8.11,27.18-13.99,50.07-37.98,58.24l-.29,8.28c24.06-1.42,57.06,16.29,59.6,42.3,3.73,38.15-42.65,52.82-72.63,41.65l-4.11,9.37c24.64,6.41,47.82,38.18,29.73,61.8-15.72,20.52-50.88,17.36-69.44,2.35l-.91-.02c-1.07,2.15-3.36,4.82-5.07,6.68-18.03,19.47-39.25,36.23-62.23,49.5l-.54,1.76c10.05,19.74,16.37,41.21,22.71,62.41l1,1.52c6.05-3,13.05-3.58,19.36-6.02,8.81-3.42,19.48-11.58,26.07-18.37,8.6-8.86,16.58-24.97,27.91-29.86,28.73-12.41,61.92,17.39,80.31,36.49,23.68,24.59,47.32,56.95,52.29,91.82,1.12,7.82,2.02,28.34-5.43,33.15-11.51,7.43-19.05-11.21-24.35-17.97-7.85-10.01-25.8-27.91-39.51-25.58-11.52,1.96-7.19,20.54-14.75,25.88-6.86,4.84-11.06-4.63-15.55-8.58-5.58-4.92-18.93-12.97-26.35-13-9.66-.03-20.22,9.11-19.22,19.19,14.89,24.09,31.55,51.33,36.51,79.69,4.27,24.44-13.46,41.42-36.01,45.86-.6.68,3.55,5.04,4.74,5.07,21.62-13.72,49.45-11.47,52.4,18.42,13.54-11.83,28.21-19.75,46.62-13.93,8.73,2.76,13.64,8.32,18.45,15.82,2.91-3.43,5.49-6.6,9.4-9,12.22-7.49,24.67-5.45,35.04,4,14.41-2.62,38.49-13,46.34,5.65,8.34,19.83-17.23,52.91-30.13,66.98-52.01,56.76-114.34,79.73-191.42,73.3-11.97-1-24.75-2.96-35.56-8.23-.68.05-3.56,8.33-4.21,9.74-2.11,4.54-9.92,19.72-13.66,21.9-3.21,1.87-12.37,2.8-16.42,3.26-23.14,2.68-47.78,2.88-71.07,2.52-35.38-.54-60.9,1.3-69.34-39.22-1.23-5.88-1.37-11.79-2.72-17.62-14.1,1.19-28.5,1.84-42.55-.28-1.71,14.78-4.6,36.95-16.84,46.97s-38.57,9.87-53.97,10.15c-23.98.43-48.39.28-72.34-2.52-5-.59-15.21-1.26-18.38-5.11-13.7-16.65-22.9-51.2-27.36-72.31-3.6-17.05-6.86-35.83-9.1-53.11-2.63-20.27-3.61-40.73-3.89-61.18-4.61-.32-9.74.44-14.28,0ZM395.6,5.2c-3.91-1.28-10.3.16-14.25,1.3-17.8,5.17-30.43,27.44-36.08,43.91-.4,1.15-4.69,15.17-3.31,15.1,5.01-.97,10.16-2,15.23-2.54,9.78-1.04,21.63-1.85,31.42-1.91,6.63-.04,14.44.3,21.26.64,9.03.46,17.98,2.53,26.99,3.17-1.51-14.22-7.5-30.55-15.99-42.1-5.49-7.48-15.62-16.61-25.28-17.58ZM522.57,42.65c-8.39,5.71-14.59,10.42-22.22,17.14-4.18,3.68-12.27,10.01-15.25,14.28-.38.54-.88.63-.62,1.59,16.44,4.89,33,11.51,48.26,19.36,6.28,3.23,13.03,6.82,19.03,10.49,5.49,3.36,11.17,7.42,16.44,11.18,19.45,13.88,36.89,30.5,51.81,49.12,1.17-.02,4.72-10.93,5.4-12.68,3.43-8.9,5.98-16.73,8.25-26.03,7.97-32.52,11.93-82.85-22.22-102.21-28.26-16.02-64.88,1.44-88.88,17.78ZM163.89,25.51c-31.93,18.32-28.58,69.63-20.95,100.31,2.26,9.07,5.03,17.9,8.25,26.66.79,2.14,6.25,17.11,7.3,17.13,19.08-24.2,42.24-45.01,68.25-61.57,20.59-13.12,43.31-23.85,66.66-31.11.26-.96-.25-1.05-.63-1.59-3.27-4.72-11.99-11.54-16.51-15.55-7.06-6.24-13.78-11.81-21.58-17.14-24.73-16.91-62-33.65-90.78-17.14ZM252.76,518.15c.42.22.85.42,1.27.63,77.98,39.36,174.21,43.03,255,9,4.35-1.83,15.52-6.28,18.62-9,.7-.05,1.28-.35,1.9-.63,81.28-36.96,139.83-128.96,135.88-218.73-.12-2.69-.67-6.54-1.3-9.18-5.56-69.81-47.72-133.54-105.38-171.41-32.01-24.58-81.96-41.6-121.68-47.51-117.94-17.55-248.06,35.11-299.77,146.32-55.52,119.41,4.02,243.32,115.45,300.51ZM77.55,269.93c8.25,10.8,19.18,18.85,33.01,20.95.84-20.35,7.34-38.76,12.85-57.98.33-1.16.77-1.83-.15-2.97,4.15-7.06,8.2-14.51,10.8-22.22-14.08-2.32-28.5-1.09-41.4,5.26-22.98,11.31-31.3,35.73-15.1,56.95ZM661.61,238.82c2.09,17.05,8.85,33.37,8.89,50.79,9.23-2.09,20.78-9.38,26.92-16.56.93-1.08,1.15-2.44,1.64-3.12,25.7-35.58-9.42-62.83-44.77-63.53-2.74-.05-5.05,1.41-7.92.05l15.23,32.37ZM56.6,368.96c3.02,5.37,10.58,9.8,16.17,12.08,16.13,6.57,32.32,5.24,48.58-.02-3.69-13.55-7.48-27.08-9.42-41.05-1.52-10.93-.72-22.15-1.98-32.31-.08-.62.22-1.48-.66-1.55-26.51-2.35-62.74,16.87-59.67,47.29.46,4.61,3.58,12.37,6.98,15.56ZM717.47,371.5c26.63-26.62-5.12-61.22-34.77-64.58-3.51-.4-7.06.39-10.3-.81-1.05.66-.63,2.41-.65,3.48-.13,12.5-.67,23.64-2.71,36.01s-5.32,24.56-9.31,36.38c.1,1.13,14.25,3.35,16.17,3.48,15.87,1.09,30.31-2.69,41.58-13.96ZM110.56,405.78c-12.71,8.35-22.31,21.51-19.68,37.46,1.3,7.9,3.98,11.72,10.16,16.51,17.36,13.47,44.67,8.42,60.67-5.06.63-.76,0-1.06-.34-1.61-2.39-3.81-6.33-7.97-9.05-11.92-5.26-7.62-10.71-15.81-15.1-23.95-3.38-6.26-6.22-13.06-8.92-19.66-6.66,1.06-12.28,4.64-17.74,8.23ZM642.56,421.02c-4.8,8.47-10.81,17.13-16.61,24.97-2.39,3.23-5.12,6.34-7.83,9.31l-.24,1.83c17.05,11.56,44.1,15.91,60.23.71,21.6-20.35-1.91-51.85-24.38-58.99l-11.17,22.17ZM229.91,531.48c-13.55,35.7-25.03,75.72-34.87,112.74-22.23,83.7-30.77,154.01-15.72,240.36,4.24,24.31,9.04,48.76,18.53,71.61,4.69-10.8,9.61-22.24,19.06-29.81,22.56-18.08,35.58,7.95,37.13,27.92,1.49.31,1.02-.2,1.42-.82,5.38-8.34,8.74-14.75,19.5-17.31,13.74-3.27,20.38,3.88,24.61,16.08,1.21,3.48,2.85,8.74,2.09,12.2,4.81-6.07,8.06-11.39,15.87-14.28,12.47-4.6,23.32-.33,28.56,11.74,1.37,3.16,2.17,6.56,3.16,9.86.27.9-.39,1.12,1.27.93,6.81-12.69,9.44-26.37,12.63-40.27l-1-.86c-5-.7-9.47-2.96-14.16-4.57-15.72-5.43-28.85-10.38-43.8-17.78-4.9-3.77-10.41-6.68-15.44-10.28-54.05-38.72-80.34-106.3-60.28-171.14,1.89-6.1,4.62-11.84,6.52-17.92,30.27-54.33,70.04-86.6,133.09-96.41,88.06-13.69,181.93,59.37,186.9,149.39,4.57,82.81-50.38,138.27-123.82,163.5-4.47,1.54-8.95,3.23-13.46,4.63-1.52.47-3.3.12-4.3,1.39,4.01,12.13,4.89,27.14,12.15,37.99.47.7,1.31,2.27,2.12,1.06,1.14-3.02,1.65-6.57,2.85-9.53,7.07-17.47,26.83-16.67,38.98-5.01l4.82,7.55c2.58-19.97,13.7-38.3,35.76-24.64,5.88,3.64,6.75,7.59,10.69,12.16.56.66.61,1.33,1.8,1.06,1.54-8.12,3.26-16.49,8-23.43,17.22-25.19,43.26,6.88,47.2,25.61l1.27.32c1.18-.74,6.37-17.04,7.19-19.79,15.43-52.06,21.64-114.92,18.23-169.03-.14-2.3-.61-5.74-1.26-7.94.14-3.72-.79-7.33-1.27-11.11-8.76-68.29-27.74-137.88-50.15-202.84-.81-2.34-1.71-4.65-2.54-6.98-2.27-6.38-4.34-12.91-7.3-19.03-26.2,14.86-55.19,25.86-84.75,32.05-39.01,8.17-86.62,8.65-125.84,1.39-33.55-6.21-65.81-18.78-95.43-35.37-1.4-.17-.73.22-1,.9-1.79,4.5-3.3,9.18-5.02,13.71ZM8.98,647.03c-2.7,9.61-4.29,20.01-2.37,29.98,1.22,6.3,2.48,10.63,9.01,5.55,5.13-3.99,6.72-11.55,9.62-17.04,15.93-30.17,36.14-65.91,61.18-89.28,7.39-6.9,15.58-13.93,25.4-16.81,6.54.87,10.34,3.11,11.78,10.12,2.57,12.45-13.41,32.57-19.51,43.42-1.35,2.39-2.45,4.97-3.7,7.41-5.51,10.72-12.9,25.19-13.88,37.22-.26,3.22-.69,8.21,2.77,9.76,3.35-4.21,5.55-9.19,8.68-13.54,3.32-4.61,7.55-8.62,10.95-13.18,9.03-12.11,15.64-26.04,28.47-35.01,17.02-11.89,19.92-5.21,34.17,3.59,3.99,2.46,8.25,4.32,12.28,6.71,3.79-4.76,7.27-10.27,11.17-14.89,4.7-5.57,10.95-8.98,11.41-16.84-19.85.33-38.14-11.17-51.11-25.39-7.47-8.19-14.03-21.6-24.43-26.04-19.09-8.14-43.52,6.92-57.78,19.35-29.37,25.61-53.45,56.97-64.11,94.92ZM649.54,531.48c-13.4,3.5-19.24,17.44-27.92,27-13.16,14.49-31.18,26-51.44,25.7-.1.68.11,1.3.27,1.95,1.73,6.92,5.4,7.85,9.58,12.64,4.55,5.21,8.06,11.38,12.81,16.44,1.01.26,10.44-4.56,12.05-5.53,10.09-6.08,14.44-14.71,28.17-8.07,16.03,7.76,24.35,24.45,34.37,38,3.42,4.62,7.65,8.72,10.94,13.18,1.72,2.33,7.66,13.3,9.04,13.83,2.75,1.06,3.46-5.96,3.38-7.84-.47-10.68-5.95-19.7-10.15-28.9-1.91-4.17-3.27-8.62-5.38-12.71-5.69-10.99-22.62-32.36-22.6-44.11,0-4.28,3.43-11.42,7.66-13.01,5.47-.57,9.55.45,14.17,3.29,30.91,18.95,60.05,69.73,76.94,101.45,2.9,5.44,6.25,18.04,12.83,19.54,4.46,1.02,4.67-2.51,5.57-6.19,2.51-10.25.97-19.79-1.59-29.84-9.74-38.2-35.91-70.92-65.05-96.51-13.46-11.82-35.33-25.08-53.66-20.3ZM74.37,599.41c-4.1,5-8.79,9.75-12.68,14.93-9.74,12.95-16.11,27.92-24.77,41.56,1.16.96,5.08-3.64,6.05-4.42,9.03-7.24,25.23-17.56,35.79-7.26.77.75,2.82,5,3.86,4.06.62-4.03,2.13-8.09,3.7-11.86,4.81-11.57,11.14-22.95,17.26-33.85,2.72-4.84,6.34-9.72,9-14.81,3.61-6.93,8.72-14.9,2.62-22.02-6.67-1.83-18.87,9.23-23.69,13.65-7.31,6.7-11.19,12.76-17.13,20.01ZM661.61,566.4c-6.15,3.63-1.37,13.76.94,18.42,4.07,8.21,9.94,17.33,14.93,25.09.53.82.54,1.86,1.9,1.56.97,6.11,7.6,16.92,10.27,23.06,1.96,4.51,3.35,9.24,5.29,13.75,9.84-14.7,25.98-6.88,37.07,1.67l7.05,5.96c-1.72-6.33-6.47-11.63-9.52-17.14-7.53-13.58-10.85-20.56-21.58-32.38-.46-.51-1.62-3.54-3.17-3.81-5.73-9.29-13.74-18.16-21.92-25.38-4.05-3.58-15.93-13.95-21.25-10.81ZM577.16,603.23l-1.26.32c14.99,48.28,27.25,97.79,33.02,148.23l3.85-3.45c2.57-1.96,6.55-2.05,9.65-1.49,2.2.41,3.43,2.14,5.54,2.39-.44-15.67,10.72-30.94,26.99-20.32.49.1.39-.59.3-.93-1.72-6.83-8.29-19.11-11.72-25.74-18.29-35.33-43.3-66.85-66.37-99.02ZM200.07,603.86c-1.32-.3-1.45.69-2.04,1.44-8.07,10.15-16.33,21.98-23.87,32.64-20.12,28.43-39.43,57.69-52.8,90.04,2.14.57,3.75-1.66,6.18-2.07,15.77-2.69,20.98,9.96,21.12,23.33.48.53,4.43-2.16,5.54-2.39,4.11-.85,9.91.16,12.18,3.88l1.32.41c4.15-33.67,10.91-66.87,19.37-99.67,4.11-15.94,9.23-31.61,13.02-47.6ZM130.87,620.36c-4.98,1.56-16.86,25.55-22.22,29.83,8.25-2.84,13.92-6.1,23.1-5,5.63.67,13.72,6.77,16.89,11.36.35.5,1.5,5.64,3.17,4.44l28.58-41.25c-4.14-1.5-8.49-3.54-12.25-5.85-10.23-6.26-11.97-13.21-25.15-5.22-4.37,2.65-9.5,7.32-12.12,11.69ZM650.81,626.08c-6.11-8.01-16.23-21.1-27.63-20.95-4.5.06-10.01,5.98-13.83,8.38-3.86,2.42-8.79,4.91-13.14,6.23l3.17,3.8,19.68,27.3c0,.85,5.21,8.45,6.2,9.97.26.39-.13,1.17,1.09.83.28-.08,1.67-4.24,2.33-5.3,1.77-2.84,6.64-7.19,9.62-8.79,9.25-4.98,20.68-2.31,28.99,3.29.21-.95-.2-1.5-.59-2.26-2.96-5.91-11.68-16.95-15.91-22.5ZM234.35,726.38c-11.06,33.24-10.06,65.84,2.54,98.4,1.29,3.33,2.28,5.61,3.81,8.89,4.31,9.23,8.04,15.83,13.97,24.12,20.34,28.46,50.9,50.63,84.43,60.95,23.84,7.34,45.9,13.85,71.74,7.94,44.93-10.28,80.17-29.08,108.56-65.71,7.59-9.8,12.13-17.33,17.14-28.57,1.66-3.72,3.05-7.21,4.44-10.79,13.49-34.76,11.71-71.83-2.54-106.02-28.22-67.71-106.86-110.03-179.16-95.68-57.08,11.33-106.4,50.79-124.93,106.47ZM130.7,730.97c-7.72.64-13.25,10.92-14.75,17.63-3.99,17.84,5.1,28.45,19.69,36.81,3.74-8.37,6.67-18.34,7.29-27.61s.93-27.92-12.23-26.83ZM660.34,753.68c.22-3.6.84-5.34-.34-8.88-3.73-11.15-19.02-21.61-24.45-6.07-5.04,14.43.09,32.24,5.13,46.03,2.19,1.55,13.81-9.24,15.53-11.4,4.68-5.85,5.83-12.97,5.38-20.33l-1.26.64ZM165.79,791.14c.16-3.48-.22-7.03-.03-10.5.46-8.58,1.84-11.93-.92-20.61-1.66-5.23-2.69-9.47-9.39-8.1-7.23,1.48-7.93,16.02-9.66,22.08-.73,2.57-1.79,5.05-2.54,7.62l-4.76,5.06c8.93,2.2,18.01,4.52,27.3,4.46ZM611.46,791.77c2.82-.37,26.65-3.59,26.65-5.4-10.1-4.45-6.53-32.21-16.31-34.46-2.95-.68-6.1.11-7.81,2.71-2.1,3.2-3.92,14.49-3.83,18.44l1.3,18.7ZM642.56,812.09c-5.83-4.21-12.47-9.8-15.86-16.2l-14.32-.78c-.67.12-.84.83-.93,1.42-.84,5.48.26,13.76.03,19.71-.25,6.46-.75,13.19-1.3,19.65-1.55,18.08-5.11,35.92-7.64,53.86,9.24,5.18,20.21,6.67,30.5,8.68,51.53,10.04,89.67,8.31,138.38-11.76,16.08-6.63,34.44-15.37,49.33-24.31,7.75-4.66,10.5-6.46,14.29-14.92,4.08-9.11,10.02-27.68-3.64-31.5-12.89-3.6-45.52,9.57-59.32,13.61-46.7,13.65-89.33,11.61-129.51-17.46ZM653.35,797.48c-4.21.92-9.2,2.23-12.7,4.78-.83,3.53,22.97,15.9,26.74,17.68,4.25,2.01,8.59,3.81,13.01,5.41,1.31.29.72-.12.86-.9.38-2.16.62-4.46.66-6.65.11-5.91-1.28-10.33-5.09-14.9-6.74-8.1-13.98-7.49-23.48-5.41ZM696.52,819.07c-.8.63-1.83.96-2.87,1.89-.88.78-6.67,6.27-6.01,7,20.88,5.65,41.72,4.87,62.84,1.27-1.87-5.13-4.41-10.14-8.25-13.96-13.73-13.68-32.66-6.52-45.71,3.81ZM773.97,812.72c-2.4.24-3.16,1.06-5.08,1.9s-1.9,1.11-3.17,1.9c-4.9,3.04-6.62,4.43-9.54,9.82-.25.47-1.32,1.07-.29,1.61l34.59-10.81c1.27-1.7-14.39-7.63-16.5-4.44ZM815.24,872.4c-3.98,2.6-9.43,5.33-13.74,7.52-54.24,27.55-102.75,37.55-163.38,25.49-.67-.13-1.6-.44-2.54-.63-11.65-2.43-23.49-5.05-34.28-10.16-1.1,7.26-2.39,14.55-4.01,21.7-1.45,6.43-3.07,13.95-4.88,20.2-.54,1.87-4.59,10.19-3.76,11.38,3.3,1.11,6.74,1.74,10.11,2.59,33.36,8.39,76.69,6.42,109.83-2.54,35.87-9.69,63.86-28.38,90.15-53.96,7.43-7.23,16.71-15.59,22.48-24.18.31-.46,2.01-3.33.06-2.48-.95.42-4.68,4.18-6.04,5.07ZM250.86,984.13c1.34-1.34-2.46-33.22-3.36-37.59-2.98-14.42-11.54-28.4-27.06-16.64-13.7,10.39-23,35.13-13.37,50.72l22.53,2.86,21.26.64ZM570.01,980.14c3.33-2.68,3.7-15.11,3.37-19.2-1.7-21.51-31.39-55.3-42.38-20.11-4.28,13.69-4.1,29.17-5.26,43.31,7.27.02,14.65-.08,21.9-.64,3.39-.26,20.69-2,22.37-3.35ZM255.94,969.21c-.49,4.82.36,10.33,0,15.24.56.91,1.27.88,2.19.98,10.61,1.24,29.5.41,40.69,0,5.97-.22,13.07-.69,19.01-1.3,9.41-.97,19.32-2.69,27.65-7.34-3.83-11.45-5.75-24.8-21.23-23.06-8.96,1.01-15.34,7.56-17.7,15.94-.73,2.57-1.89,12.78-2.65,13.85-.68.95-2.95.68-4.09.54-3.93-15.37-1.83-53.58-28.13-41.02-8.99,4.29-14.77,16.66-15.74,26.16ZM476.87,984.13c-1.01-.14-3.31.47-3.88-.37-1.97-7.63-1.62-16.42-6.93-22.79-6.49-7.79-21.66-10.7-28.19-1.56-1.69,2.37-5.64,13.44-5.98,16.31-.08.73-.17,1.26.53,1.74,6.8,3.45,14.42,5.03,21.92,6.02,14.17,1.87,29.19,1.94,43.48,1.91,6.23-.01,14.78.72,20.66.03.92-.11,1.63-.08,2.19-.98v-16.51c0-4.67-4.97-14.91-7.99-18.67-5.23-6.53-18.15-12.46-25.02-5.45-8.51,8.69-7.3,29.23-10.8,40.31Z"/><path class="cls-69" d="M558.76,118.83c59.74,45.87,92.28,91.69,103.48,167.23.25,1.72,2.27,4.02,1.28,6.72l.63-2.54c.62,2.64,1.18,6.49,1.3,9.18,3.95,89.77-54.61,181.77-135.88,218.73-.13-2.41.19-4.88-.01-7.29-1.04-12.19-3.72-27.62-5.89-39.82-4.06-22.82-9.06-36.6-22.78-55.31-7.12-9.72-22.07-12.78-33.24-9.34-10.19,3.14-15.51,11.15-23.59,17.04-16.45,12-42.45,25.07-63.29,22.89-13.73-1.43-36.69-20.62-49.49-27.96-6.79-3.9-22.91-11.05-30.5-10.65-8.98.47-22.05,7.27-26.94,15.01-16.05,25.42-16.91,50.89-19.81,79.86-.52,5.18-1.93,10.26-1.26,15.56-111.43-57.19-170.98-181.1-115.45-300.51,51.71-111.21,181.83-163.87,299.77-146.32,39.72,5.91,89.67,22.93,121.68,47.51ZM387.19,82.8c-16.1,2.72-27.8,35.54-27.77,49.69,0,4.13,5.18,9.67,8.69,11.63,14.16,7.88,33.79,5.88,47.13-2.8,3.06-1.99,4.56-4.95,8.33-5,.5-.3.6-.74.63-1.29.14-2.2-1.63-9.72-2.22-12.41-3.61-16.53-13.33-43.45-34.79-39.82ZM257.08,135.53c-16.88,1.72-43.3,18.5-33.97,38.04,11.59,24.25,59.61,12.31,65.55-12.18,4.63-19.12-15.64-27.49-31.58-25.86ZM510.37,135.52c-12.69,1.45-26.12,11.26-22.54,25.36,5.8,22.87,43.83,34.45,61.41,18.59,8.15-7.35,7.62-17.87,1.79-26.56-8.11-12.08-26.44-19.01-40.66-17.39ZM425.9,215.81c1.37-3.17-3.35-22.12-4.72-26.38-4.54-14.01-16.15-35-34-28.56-15.04,5.42-23.6,30.29-25.69,44.77-.81,5.62-.39,7.01,2.5,11.78,9.72,16.05,38.61,17.09,53.64,8.81,5.45-3,4.99-4.36,6.99-9.5.29-.74,1.21-.75,1.28-.93ZM229.78,211.07c-58.75,6-68.44,99.46-39.49,139.42,44.81,61.86,131.75,20.02,129.13-52.95-1.59-44.16-43.52-91.18-89.64-86.48ZM482.17,239.68c-24.73,25.26-31.55,63.33-17.27,95.87,27.39,62.41,109.13,57.76,132.13-5.45,11.77-32.35,4.1-86.32-25.36-107.67-31.55-22.87-65.31-7.46-89.5,17.26ZM334.66,384.83c4.11,9.28,14.19,13.23,23.49,15.87,1.75.5,2.46.37,3.81.63,1.24.24,2.46,1.16,3.17,1.27l19.36,1.9c2.15-.45,6.64-1.01,7.61-3.18l-.95-55.56,2.54-.93c15.77,3.4,31.57,15.86,40.51,29.01,1.18,1.74,4.86,9.14,5.51,9.72,1.81,1.62,3.76.71,3.24-1.93-3.39-17.19-33.44-39.55-50.38-41.71-16.36-2.09-37.15,11.36-47.46,23.32-2.67,3.09-12.25,16.37-11.61,19.87.12.63.9,1.18,1.14,1.72ZM420.85,372.93c-2.42.29-6.71,1.94-8.7,3.37-5.54,3.98-13.49,22.32-4.96,25.82,4.76,1.95,13.51-4.93,16.67-8.4,5.9-6.48,10.14-22.4-3.01-20.79ZM196.1,403.4c-6.18.96-13.21,6.91-13.22,13.5-.03,22.57,45.13,45.03,61.34,28.27,8.13-8.41.19-21.28-6.68-27.65-10.33-9.58-27.27-16.33-41.44-14.12ZM567.49,403.41c-10.92,1.37-26.31,10.39-32.84,19.21-12.36,16.67-2.14,29.88,17.36,28.16,13.88-1.23,34.28-12.28,39.87-25.52,7.74-18.31-9.38-23.74-24.39-21.85Z"/><path class="cls-69" d="M549.24,537.83c.83,2.33,1.73,4.64,2.54,6.98-2.02-.24-1.24.62-.89,1.84,18.68,64.77,39.82,125.94,49.09,193.43.96,6.97.58,14.47,2.59,21.22,1.11.13.6-1.79.63-2.54.65,2.21,1.12,5.64,1.26,7.94,3.4,54.11-2.81,116.97-18.23,169.03-.81,2.74-6.01,19.05-7.19,19.79l-1.27-.32c-3.94-18.72-29.99-50.8-47.2-25.61-4.74,6.93-6.46,15.3-8,23.43-1.18.28-1.23-.4-1.8-1.06-3.94-4.57-4.81-8.52-10.69-12.16-22.06-13.66-33.18,4.67-35.76,24.64l-4.82-7.55c-12.15-11.66-31.91-12.46-38.98,5.01-2.42-4.11-1.7-10.25-1.93-14.94l2.57-20.61c73.44-25.23,128.39-80.69,123.82-163.5-4.97-90.02-98.83-163.08-186.9-149.39-63.05,9.8-102.82,42.07-133.09,96.41-10.85,19.47-13.2,34.08-13.95,56.14-.01.42-1.17.05-1.34,1.27-.56,4.03,1.06,5.55,1.37,8.28.25,2.24-.81,4.56-.73,7,1.76,51.34,38.84,104.41,83.84,126.65,14.96,7.39,28.09,12.35,43.8,17.78-.36,2.86-.2,6.33-.03,9.23.59,9.99,1.93,14.68-.52,24.83-.34,1.39.47,2.04-1.36.85-5.24-12.07-16.09-16.34-28.56-11.74-7.81,2.88-11.06,8.21-15.87,14.28.76-3.46-.88-8.72-2.09-12.2-4.23-12.2-10.87-19.35-24.61-16.08-10.75,2.56-14.11,8.96-19.5,17.31-.4.62.07,1.13-1.42.82-1.55-19.97-14.57-46-37.13-27.92-9.45,7.57-14.37,19.01-19.06,29.81-9.49-22.85-14.29-47.3-18.53-71.61-15.04-86.35-6.51-156.66,15.72-240.36,9.83-37.01,21.32-77.04,34.87-112.74,3.37,1.6,5.41,6.08,7.93,8.9,20.75,23.23,55.45,46.02,85.91,53.12,59.81,13.95,158.88,9,206.14-34.7,6.64-6.14,10.92-12.89,16.82-19.37.75-.82,1.28-1.57,2.53-1.59Z"/><path class="cls-107" d="M535.91,717.49c2.64,2.87,4.94,10.09,6.15,14.48,6.98,25.36,7.39,51.62.64,77.06l-4.22,12.93,2.51-.36c-1.39,3.59-2.78,7.07-4.44,10.79l-1.28.94,3.18-9.19c-1.55-.58-2.48,1.01-3.17,1.27-75.11,27.85-164.7,33.86-243.26,18.85-16.59-3.17-33.9-6.78-49.75-12.5l-1.56,1.91c-1.53-3.27-2.52-5.56-3.81-8.89,1.18-.61.52-2.22.35-3.19-.65-3.55-2.01-7.02-2.82-10.52-6.38-27.52-7.48-55.12,1.84-82.15,7.04,2.46,18.3,4.21,25.9,5.53,57.62,10.02,119.47,10.65,177.56,3.99,32.64-3.75,65.64-8.66,96.19-20.94Z"/><path class="cls-10" d="M529.56,518.15c-.62.28-1.2.59-1.9.63.37-.32.67-1.26,1.27-1.59-.58-1.02-1.56.46-2.41.77-18.96,6.95-36.82,15.13-56.48,20.33-63.54,16.82-144.11,11.56-204.05-15.9-4.01-1.84-8.47-3.69-11.63-6.78l-.31,3.17c-.42-.21-.84-.42-1.27-.63-.67-5.3.74-10.38,1.26-15.56,2.91-28.97,3.77-54.44,19.81-79.86,4.89-7.74,17.96-14.53,26.94-15.01,7.59-.4,23.71,6.75,30.5,10.65,12.8,7.35,35.76,26.53,49.49,27.96,20.84,2.18,46.84-10.9,63.29-22.89,8.08-5.89,13.39-13.9,23.59-17.04,11.17-3.44,26.12-.38,33.24,9.34,13.72,18.71,18.72,32.49,22.78,55.31,2.17,12.2,4.85,27.63,5.89,39.82.2,2.41-.12,4.88.01,7.29Z"/><path class="cls-13" d="M535.27,825.42c1.81-.28,1.5.69.93,1.89-4.92,10.34-10.61,20.76-16.45,30.54-.62,1.04-1.12,1.84-.99,3.13-27.09,33-64.97,52.94-106.37,62.81-16.34,3.9-34.98,2.73-51.23-1.39l-30.31-8.09c-33.35-15.59-47.84-27.57-72.36-54.3-.19-.21-4.35-5.18-3.83-2.21-5.93-8.29-9.66-14.89-13.97-24.12l1.56-1.91c15.85,5.72,33.15,9.33,49.75,12.5,78.56,15.02,168.16,9.01,243.26-18.85Z"/><path class="cls-69" d="M633.04,898.42c-1.04-1.09-1.21-1.99-1.31-3.45-1.4-19.34.7-39.94,4.8-58.77,1.76-8.09,4.28-16.03,6.04-24.12,40.18,29.07,82.81,31.11,129.51,17.46,13.8-4.03,46.43-17.21,59.32-13.61,13.66,3.81,7.72,22.39,3.64,31.5-3.79,8.46-6.53,10.26-14.29,14.92-14.89,8.94-33.25,17.69-49.33,24.31-48.71,20.07-86.85,21.81-138.38,11.76Z"/><path class="cls-109" d="M549.24,537.83c-1.25.02-1.78.77-2.53,1.59-5.9,6.48-10.17,13.23-16.82,19.37-47.27,43.7-146.33,48.65-206.14,34.7-30.46-7.1-65.16-29.89-85.91-53.12-2.52-2.82-4.56-7.3-7.93-8.9,1.72-4.53,3.23-9.2,5.02-13.71.27-.68-.4-1.07,1-.9,29.62,16.59,61.87,29.16,95.43,35.37,39.22,7.26,86.83,6.78,125.84-1.39,29.55-6.19,58.55-17.19,84.75-32.05,2.96,6.12,5.03,12.65,7.3,19.03Z"/><path class="cls-27" d="M130.87,532.75c4.22,13.45,19.08,24.11,18.43,39.07-.73,16.86-19.38,29.1-30.5,39.32-4.99,4.59-9.8,10.74-14.93,14.91-.74.6-3.99,3.33-4.74,2.55l1.27-8.25c1.25-2.44,2.35-5.02,3.7-7.41,6.1-10.84,22.07-30.97,19.51-43.42-1.45-7.01-5.24-9.25-11.78-10.12-14.73-1.95-31.93,11.32-42.54,20.63-19.19,16.82-31.45,42.52-47.92,61.91-1.56,1.83-9.56,10.26-11.79,8.61l-.6-3.54c10.66-37.95,34.74-69.31,64.11-94.92,14.26-12.43,38.69-27.49,57.78-19.35Z"/><path class="cls-25" d="M768.26,648.3l-.32,3.18c-3.02.41-8.17-4.72-10.16-6.98-23.78-26.99-39.67-66-75.24-80.93-6.52-2.74-15.26-6.13-22.2-3.51-4.24,1.6-7.65,8.73-7.66,13.01-.03,11.75,16.91,33.12,22.6,44.11,2.12,4.09,3.48,8.54,5.38,12.71.09,2.4-.4.78-1.25.3-9.51-5.42-15.06-13.01-22.87-20.3-12.96-12.1-34.99-26.3-26.34-47.28l19.35-31.12c18.33-4.79,40.2,8.48,53.66,20.3,29.14,25.6,55.31,58.31,65.05,96.51Z"/><path class="cls-20" d="M254.67,42.65c-1.96.51-6.19,1.72-6.35,3.81-.45-.4-2.66-1.67-3.81-2.54-13.16-9.99-31.98-17.11-48.23-20.01-5.36-.96-13.01-3.05-17.14,1.28-.01,1.45,17.49,4.93,19.8,5.58,15.17,4.21,28.43,8.7,41.13,18.23-.7,1.1-19.99,10.06-23.28,11.95-7.89,4.55-15.21,10.11-23.06,14.72l16.5,20.3c-2.5-.25-4.34,1.64-6.28,2.93-15.45,10.29-41.19,35.2-51.85,50.36-.79,1.12-1.17,1.76-.91,3.21-3.23-8.77-5.99-17.59-8.25-26.66.55-3.52,4.68-5.91,6.96-8.59,5.04-5.92,9.26-12.72,14.6-18.41,8.17-8.7,18.77-15.1,27.21-23.56-3.03-6.86-8.28-12.37-12.07-18.85-3.05-5.22-6.23-11.49-9.11-16.92-2.4-4.53-4.74-9.23-6.65-13.98,28.78-16.51,66.05.23,90.78,17.14Z"/><path class="cls-32" d="M611.45,24.88c-5.09,10.15-10.08,21.08-15.76,30.9-1.6,2.77-12.32,18.18-12.07,19.48,9.57,9.73,21.38,16.97,30.39,27.37l19.66,24.46c-2.28,9.29-4.82,17.13-8.25,26.03.24-1.44-.46-1.94-1.24-2.88-18.15-21.85-35.82-38.4-58.43-55.52l17.13-19.36c-7.05-4.79-14.04-9.83-21.38-14.16-6.53-3.85-15.42-8.86-22.42-11.55,10.72-7.41,22.8-13.12,35.22-17.15,5.19-1.69,11.47-2.59,16.38-4.57,4.7-1.89.38-2.78-2.41-3.02-16.26-1.4-42.08,11.87-54.91,21.57-.35.26-.93.37-1.27.63-2.19-2.2-6.45-3.65-9.52-4.44,24-16.33,60.62-33.8,88.88-17.78Z"/><path class="cls-49" d="M812.7,876.21c-5.13,5.35-10.18,10.59-15.87,15.24-38.19,31.17-80.76,49.57-130.47,52.69-7.66.48-24.58,1.04-27.33-8.21s-2.79-20.08-4.73-29.24c-.15-.68-.39-1.26-.63-1.9h1.9c.94.19,1.87.5,2.54.63.42,1.14,1.38,1.37,2.39,1.74,27.48,9.87,73.44,5.48,101.73-2.04,24.8-6.59,47.35-18.25,70.46-28.89Z"/><path class="cls-22" d="M577.16,603.23c23.07,32.17,48.08,63.69,66.37,99.02,3.43,6.63,9.99,18.91,11.72,25.74.09.35.18,1.03-.3.93-16.27-10.63-27.42,4.64-26.99,20.32-2.11-.25-3.34-1.98-5.54-2.39-3.09-.57-7.08-.48-9.65,1.49l-3.85,3.45c-5.78-50.43-18.04-99.95-33.02-148.23l1.26-.32Z"/><path class="cls-22" d="M200.07,603.86c-3.78,15.99-8.91,31.66-13.02,47.6-8.45,32.81-15.22,66-19.37,99.67l-1.32-.41c-2.28-3.72-8.07-4.73-12.18-3.88-1.11.23-5.06,2.92-5.54,2.39-.14-13.38-5.35-26.03-21.12-23.33-2.43.42-4.04,2.64-6.18,2.07,13.38-32.34,32.68-61.61,52.8-90.04,7.54-10.65,15.79-22.48,23.87-32.64.6-.75.73-1.74,2.04-1.44Z"/><path class="cls-53" d="M796.83,891.44h1.27s-.63,2.53-.63,2.53h1.27c-26.29,25.59-54.28,44.27-90.15,53.97-2.87-2.01-6.02.49-8.86.97-11.55,1.98-24.11,3.43-35.87,4.13-6.68.4-13.17-1.02-19.73-.69-2.69.14-6.22,1.26-8.79,1.23-2.86-.04-6.62-1.8-8.98-1.87-6.83-.21-11.64.88-18.99-.64-2.7-.56-5.37-3.31-8.6-.6-3.37-.85-6.81-1.48-10.11-2.59-.83-1.18,3.22-9.5,3.76-11.38l.94,1.26c3.25-8.4,6.05-17.65,7.79-26.49.54-2.72.2-11.23,2.69-12.58,1.33-.72,5.16,2.04,6.89,2.68,6.05,2.25,11.74,3.73,18.04,4.8.9.15,1.71,1.12,2.7,1.1s1.66-1.65,2.85-.61c1.94,9.15,2.08,20.32,4.73,29.24s19.66,8.69,27.33,8.21c49.71-3.12,92.28-21.52,130.47-52.69Z"/><path class="cls-94" d="M261.02,67.41c-8.5,2.38-16.85,7.02-24.55,11.32-8.91,4.98-17.68,10.45-25.59,16.93,4.32,3.56,8.57,7.75,12.99,11.13.94.72,1.39,1.53,2.87,1.25-26.01,16.56-49.17,37.36-68.25,61.57-1.05-.02-6.51-14.99-7.3-17.13-.25-1.45.12-2.09.91-3.21,10.66-15.16,36.39-40.08,51.85-50.36,1.94-1.29,3.78-3.19,6.28-2.93l-16.5-20.3c7.85-4.61,15.17-10.17,23.06-14.72,3.29-1.89,22.58-10.85,23.28-11.95,7.46,5.6,13.99,13.23,20.95,18.41Z"/><path class="cls-63" d="M649.54,531.48l-19.35,31.12c-8.65,20.97,13.39,35.18,26.34,47.28,7.81,7.29,13.35,14.88,22.87,20.3.84.48,1.33,2.11,1.25-.3,4.2,9.2,9.69,18.22,10.15,28.9.08,1.88-.63,8.9-3.38,7.84-1.39-.53-7.33-11.5-9.04-13.83-3.29-4.46-7.53-8.56-10.94-13.18-10.02-13.55-18.35-30.24-34.37-38-13.73-6.64-18.07,1.99-28.17,8.07-1.61.97-11.03,5.8-12.05,5.53-4.75-5.07-8.25-11.23-12.81-16.44-4.18-4.79-7.85-5.72-9.58-12.64-.16-.65-.37-1.26-.27-1.95,20.26.31,38.28-11.21,51.44-25.7,8.68-9.55,14.52-23.5,27.92-27Z"/><path class="cls-79" d="M633.67,127.09l-19.66-24.46c-9-10.4-20.81-17.64-30.39-27.37-.25-1.3,10.46-16.71,12.07-19.48,5.68-9.81,10.67-20.75,15.76-30.9,34.15,19.36,30.19,69.69,22.22,102.21Z"/><path class="cls-23" d="M130.87,532.75c10.41,4.44,16.96,17.85,24.43,26.04,12.97,14.22,31.26,25.71,51.11,25.39-.46,7.86-6.71,11.27-11.41,16.84-3.9,4.62-7.38,10.13-11.17,14.89-4.02-2.39-8.29-4.25-12.28-6.71-14.25-8.79-17.15-15.48-34.17-3.59-12.84,8.97-19.44,22.9-28.47,35.01-3.39,4.55-7.63,8.57-10.95,13.18-3.13,4.35-5.33,9.33-8.68,13.54-3.45-1.55-3.03-6.54-2.77-9.76.99-12.03,8.37-26.5,13.88-37.22l-1.27,8.25c.75.78,4-1.95,4.74-2.55,5.13-4.17,9.94-10.32,14.93-14.91,11.12-10.23,29.77-22.46,30.5-39.32.65-14.96-14.21-25.62-18.43-39.07Z"/><path class="cls-40" d="M163.89,25.51c1.92,4.75,4.25,9.45,6.65,13.98,2.88,5.42,6.06,11.7,9.11,16.92,3.78,6.47,9.04,11.99,12.07,18.85-8.45,8.47-19.04,14.86-27.21,23.56-5.34,5.69-9.56,12.49-14.6,18.41-2.28,2.68-6.41,5.07-6.96,8.59-7.63-30.68-10.98-81.98,20.95-100.31Z"/><path class="cls-82" d="M642.56,812.09c-1.76,8.09-4.28,16.03-6.04,24.12-4.09,18.83-6.2,39.43-4.8,58.77.11,1.46.27,2.36,1.31,3.45-10.29-2.01-21.26-3.49-30.5-8.68,2.53-17.94,6.09-35.78,7.64-53.86.55-6.46,1.05-13.19,1.3-19.65.23-5.94-.87-14.23-.03-19.71.09-.6.26-1.31.93-1.42l14.32.78c3.39,6.39,10.04,11.98,15.86,16.2Z"/><path class="cls-108" d="M109.29,306.11c-.26,11.68-4.6,24.36-8.88,35.25-5.54,14.11-15.21,26.99-31.09,29.86-4.82.87-9.13,1.13-12.73-2.25-3.39-3.19-6.51-10.95-6.98-15.56-3.07-30.42,33.16-49.64,59.67-47.29ZM57.87,348.65c-.02,1.9,0,3.81,0,5.71,2.38-2.77,2.01-7.07,3.8-10.79,1.75-3.64,6.53-10.88,9.2-13.97,2.89-3.34,6.87-6.79,11.12-8.26,1.23-1.28-2.1-1.68-2.75-1.66-13.2.51-21.27,17.52-21.38,28.97Z"/><path class="cls-57" d="M255.94,969.21c.96-9.5,6.75-21.87,15.74-26.16,26.31-12.56,24.2,25.64,28.13,41.02,1.14.14,3.41.41,4.09-.54.76-1.07,1.93-11.28,2.65-13.85,2.36-8.38,8.74-14.93,17.7-15.94,15.47-1.75,17.4,11.61,21.23,23.06-8.33,4.65-18.23,6.37-27.65,7.34-5.94.61-13.05,1.09-19.01,1.3-11.19.41-30.08,1.25-40.69,0-.92-.11-1.63-.08-2.19-.98.36-4.91-.49-10.42,0-15.24ZM270.54,953.03c-9.09,3.96-13.7,19.5-7.92,27.92,1.45.27.86-.64.94-1.58.5-6.22,1.78-12.11,3.5-18.09l3.49-8.25ZM313.71,977.78l3.17-14.6c-4.1,1.9-6.98,8.84-5.12,13.07.42.96.68,1.77,1.95,1.53Z"/><path class="cls-32" d="M77.55,269.93c-16.2-21.23-7.88-45.65,15.1-56.95,12.9-6.35,27.32-7.58,41.4-5.26-2.59,7.71-6.64,15.16-10.8,22.22-5.84,9.93-16.12,27.62-25.08,34.28-6.19,4.6-12.89,6.55-20.63,5.71ZM113.1,215.96c-.98-2.2-4.39-2.59-6.56-2.48-11.97.62-23.47,17.06-25.81,27.88,1.64.4,1.11-.53,1.65-1.19,6.41-7.82,12.94-16.34,22.25-20.94,2.56-1.27,5.81-2.05,8.48-3.27Z"/><path class="cls-78" d="M717.47,371.5c-20.05-2.03-30.93-11.86-38.4-29.85-1.73-4.17-5.78-14.25-6.53-18.23-.96-5.13.4-11.98-.15-17.31,3.24,1.2,6.79.41,10.3.81,29.66,3.36,61.4,37.96,34.77,64.58ZM712.39,334.68c-5.06-8.97-14.69-19.73-26.03-17.13-.25,1.14.34,1.25,1.05,1.8,1.91,1.46,5.61,2.48,8.03,4.03,4.34,2.78,11.95,11.43,15.04,15.75,2.08,2.91,3.85,7.22,5.97,10.23.53.75.02,1.56,1.64,1.19-.67-5.95-2.82-10.75-5.71-15.87Z"/><path class="cls-62" d="M250.86,984.13l-21.26-.64-22.53-2.86c-9.63-15.59-.33-40.33,13.37-50.72,15.51-11.76,24.08,2.22,27.06,16.64.9,4.37,4.7,36.25,3.36,37.59ZM216.58,948.58c-6.69,5.49-10.71,15.02-7.61,23.49,1.64.18,1.01,0,1.28-.92,2.48-8.46,4.06-13.44,9.51-20.66.35-.46.45-1.27.99-1.84,1.29-1.36,4.04-1.76,4.09-3.87-3.69-.25-5.72,1.73-8.25,3.81Z"/><path class="cls-32" d="M570.01,980.14c-1.68,1.35-18.98,3.09-22.37,3.35-7.25.56-14.62.65-21.9.64,1.16-14.14.98-29.61,5.26-43.31,10.99-35.19,40.67-1.39,42.38,20.11.32,4.09-.04,16.52-3.37,19.2ZM561.93,953.66c1.62,3.84,2.58,8.09,3.82,12.06,1.19.06,1.3.3,1.28-.96-.02-1.49-.46-3.73-.66-5.39-1.03-8.52-4.67-20.26-13.5-23.64-.62-.24-3.71-1.27-3,.45,2.32,2.16,4.4,4.51,6.23,7.11,2.07,2.95,4.45,7.08,5.83,10.36Z"/><path class="cls-32" d="M699.06,269.93c-19.11-1.36-28.09-16.81-37.46-31.11l-15.23-32.37c2.87,1.36,5.18-.11,7.92-.05,35.35.7,70.47,27.95,44.77,63.53ZM699.06,233.11c-5.96-8.09-13.94-16.39-24.12-19.36-2.75-.8-8.05-2.38-8.89,1.58,11.58,2.85,20.32,10.71,28.89,18.44.52.47,1.43.47,1.59.61,2.3,2.12,4.56,5.32,6.73,7.56.66.68.91,1.61,2.16,1.32-1.5-3.98-3.91-6.84-6.35-10.15Z"/><path class="cls-19" d="M395.6,5.2c-1.64-.16-3.4.06-5.05.03-3.56,18.35-2.91,37.24-1.94,55.83-9.79.06-21.64.87-31.42,1.91-5.07.54-10.22,1.57-15.23,2.54-1.37.07,2.92-13.95,3.31-15.1,5.65-16.48,18.28-38.74,36.08-43.91,3.95-1.15,10.34-2.59,14.25-1.3Z"/><path class="cls-96" d="M111.83,559.42c-9.82,2.89-18.02,9.92-25.4,16.81-25.03,23.37-45.25,59.11-61.18,89.28-2.9,5.5-4.49,13.05-9.62,17.04-6.53,5.08-7.79.75-9.01-5.55-1.93-9.97-.33-20.37,2.37-29.98l.6,3.54c2.23,1.65,10.23-6.77,11.79-8.61,16.47-19.4,28.73-45.09,47.92-61.91,10.61-9.3,27.82-22.58,42.54-20.63Z"/><path class="cls-68" d="M660.34,560.05c6.94-2.62,15.68.77,22.2,3.51,35.57,14.93,51.46,53.94,75.24,80.93,1.99,2.26,7.14,7.39,10.16,6.98l.32-3.18c2.56,10.06,4.1,19.59,1.59,29.84-.9,3.68-1.11,7.21-5.57,6.19-6.58-1.5-9.94-14.11-12.83-19.54-16.89-31.72-46.03-82.5-76.94-101.45-4.62-2.83-8.7-3.85-14.17-3.29Z"/><path class="cls-32" d="M395.6,5.2c9.66.97,19.78,10.09,25.28,17.58,8.49,11.55,14.47,27.88,15.99,42.1-9.01-.64-17.96-2.71-26.99-3.17-6.82-.35-14.63-.68-21.26-.64-.98-18.59-1.62-37.48,1.94-55.83,1.65.03,3.41-.2,5.05-.03ZM424.13,50.88c.91-.57.75-6.97.52-8.39-.84-5.33-11.57-25.12-16.98-26.23-1.21-.25-3,.6-3.54,1.64-.77,1.47,6.81,11.85,8.09,14.17,2.44,4.43,4.02,9.49,6.61,13.71.77,1.26,3.78,6.07,5.3,5.1Z"/><path class="cls-24" d="M103.58,602.59c-6.12,10.9-12.44,22.28-17.26,33.85-1.56,3.76-3.08,7.83-3.7,11.86-1.04.94-3.09-3.31-3.86-4.06-10.57-10.3-26.77.02-35.79,7.26-.97.78-4.88,5.39-6.05,4.42,8.66-13.64,15.03-28.61,24.77-41.56,3.89-5.18,8.58-9.93,12.68-14.93,4.46-.79,7.89-4.76,12.56-6.17,9.92-3,13.31.52,16.65,9.35Z"/><path class="cls-36" d="M109.29,306.11c.88.07.59.93.66,1.55,1.26,10.15.46,21.37,1.98,32.31,1.94,13.97,5.73,27.5,9.42,41.05-16.26,5.26-32.45,6.59-48.58.02-5.59-2.28-13.15-6.7-16.17-12.08,3.6,3.38,7.91,3.12,12.73,2.25,15.88-2.87,25.55-15.75,31.09-29.86,4.27-10.88,8.62-23.57,8.88-35.25Z"/><path class="cls-24" d="M699.06,600.05c1.04.65,2.2,2.44,3.81,2.91,1.13.33,1.81-.39,1.9-.37,1.55.27,2.71,3.3,3.17,3.81l-1.02.7c4.71,6.96,10.98,14.08,15.39,21.11,2.09,3.34,2.9,7.57,5.93,10.9.87.96,1.48,1.66,1.29-.33,3.05,5.5,7.8,10.81,9.52,17.14l-7.05-5.96c-11.09-8.54-27.23-16.37-37.07-1.67-1.94-4.51-3.33-9.24-5.29-13.75-2.67-6.14-9.3-16.96-10.27-23.06-.01-.08.78-.74.66-1.54-1.09-7.11-2.66-11.86,2.64-18.01,2.57-1.5,13.61,6.37,16.38,8.12Z"/><path class="cls-64" d="M276.25,59.79c4.53,4,13.24,10.82,16.51,15.55.37.54.88.63.63,1.59-23.35,7.26-46.06,18-66.66,31.11-1.48.28-1.93-.53-2.87-1.25-4.42-3.38-8.67-7.56-12.99-11.13,7.91-6.48,16.68-11.95,25.59-16.93,7.7-4.3,16.05-8.94,24.55-11.32.61.46,2.29.59,2.86,1.89l.94-.94c-.91-.73-.86-2.12-1.25-2.86l9.97-3.68,2.73-2.04Z"/><path class="cls-82" d="M110.56,405.78c5.46-3.59,11.08-7.17,17.74-8.23,2.7,6.6,5.54,13.39,8.92,19.66-4.83,18.54-15.49,38.98-36.19,42.53-6.17-4.79-8.86-8.61-10.16-16.51,1.76-.86,3.56.38,5.71-1.27.29.87.62,2.35,1.9,1.9,1.44-12.54,8.19-25.79,17.14-34.6-1.38-.93-3.21.32-4.44.96l-.63-4.44Z"/><path class="cls-82" d="M678.11,457.84c-2.58,1.16-5.41-.32-7.84-1.36-15.05-6.46-21.86-21.14-27.71-35.46l11.17-22.17c22.47,7.14,45.98,38.64,24.38,58.99ZM677.47,438.16c.1-7.3-7.44-28.41-15.61-29.2-.67-.06-3.23.39-3.4.67-1.39,2.23,1.44,1.67,2.47,2.2,2.64,1.34,9.94,15.24,11.8,18.7.39.72,3.4,9.12,4.75,7.63Z"/><path class="cls-20" d="M497.82,985.4c-6.2-1.52-13.06-.17-19.41-.61-.85-.06-1.36-.63-1.54-.66,3.49-11.08,2.29-31.62,10.8-40.31,6.87-7.02,19.79-1.08,25.02,5.45,3.02,3.77,7.99,14,7.99,18.67v16.51c-.56.91-1.27.88-2.19.98-5.88.69-14.43-.04-20.66-.03ZM506.7,951.12c-.59-.49-2.59-2.23-2.92-2.45-1.36-.88-5.45-1.97-6.6-.71-.94,1.03.51,1.17.81,1.44,1.5,1.34,3.2,2.56,4.9,3.63,1.43,2.7,4.6,6.05,6.35,8.89,2.15,3.5,3.97,7.9,6.22,11.23.55.81.72,1.73,2.03,1.46-.64-5.54-2.66-10.88-5.08-15.87-1.92-3.95-2.25-4.73-5.71-7.62Z"/><path class="cls-32" d="M717.47,371.5c-11.27,11.27-25.7,15.05-41.58,13.96-1.92-.13-16.08-2.35-16.17-3.48,3.99-11.81,7.28-24.04,9.31-36.38s2.58-23.51,2.71-36.01c.01-1.07-.41-2.82.65-3.48.55,5.33-.81,12.18.15,17.31.75,3.98,4.8,14.07,6.53,18.23,7.47,17.99,18.35,27.81,38.4,29.85Z"/><path class="cls-27" d="M513.05,64.87c-.67.86-4.99,7.06-4.44,7.61,1.19.27,1.51-.67,2.22-1.27,2.11-1.75,3.91-3.91,6.03-5.71,15.05,9.15,32.87,16.28,46.93,27.03.92.7,1.49,1.82,1.95,2.17l-13.97,10.79c-6-3.67-12.76-7.26-19.03-10.49-15.26-7.85-31.82-14.47-48.26-19.36-.26-.96.25-1.05.62-1.59,2.97-4.27,11.07-10.6,15.25-14.28l12.7,5.08Z"/><path class="cls-108" d="M101.04,459.75c20.7-3.56,31.35-24,36.19-42.53,4.39,8.14,9.84,16.32,15.1,23.95,2.72,3.94,6.66,8.11,9.05,11.92.34.55.97.85.34,1.61-16.01,13.49-43.31,18.53-60.67,5.06Z"/><path class="cls-63" d="M625.42,153.12c-.68,1.75-4.23,12.66-5.4,12.68-14.92-18.62-32.36-35.24-51.81-49.12-5.27-3.76-10.94-7.82-16.44-11.18l13.97-10.79c22.61,17.12,40.28,33.68,58.43,55.52.78.94,1.48,1.44,1.24,2.88Z"/><path class="cls-78" d="M678.11,457.84c-16.13,15.2-43.19,10.85-60.23-.71l.24-1.83c2.72-2.97,5.44-6.08,7.83-9.31,5.8-7.84,11.82-16.5,16.61-24.97,5.84,14.32,12.66,29,27.71,35.46,2.43,1.04,5.26,2.52,7.84,1.36Z"/><path class="cls-70" d="M130.7,730.97c13.16-1.09,12.82,18,12.23,26.83-.62,9.27-3.55,19.24-7.29,27.61-14.59-8.36-23.68-18.98-19.69-36.81,1.5-6.71,7.03-16.99,14.75-17.63ZM125.15,769.55c-.59-6.53-2.15-13.06-4.75-19.04-2.48,5.32.77,15,4.75,19.04Z"/><path class="cls-31" d="M660.34,753.68l1.26-.64c.44,7.35-.71,14.47-5.38,20.33-1.72,2.16-13.34,12.95-15.53,11.4-5.04-13.79-10.17-31.6-5.13-46.03,5.43-15.54,20.71-5.08,24.45,6.07,1.18,3.54.56,5.27.34,8.88ZM647.01,774.63c6.59-3.83,15.68-19.04,11.97-26.26-.25-.49-1.73-2.12-2.15-2.3-1.45-.62-.71.79-.67,1.31.85,9.38-6.92,18.41-9.16,27.26Z"/><path class="cls-58" d="M640.02,622.9c2.47.55,5.62,2.21,8.05,3.1,1.04.38,1.63,1.01,2.75.07,4.23,5.55,12.95,16.58,15.91,22.5.38.77.79,1.32.59,2.26-8.32-5.6-19.74-8.26-28.99-3.29-2.98,1.6-7.85,5.95-9.62,8.79-.66,1.06-2.05,5.22-2.33,5.3-1.22.34-.84-.44-1.09-.83-.99-1.52-6.2-9.12-6.2-9.97-.03-5.47-.99-11.58.45-17.01,3.08-11.62,9.46-13.38,20.5-10.92Z"/><path class="cls-24" d="M148.65,656.55c-3.18-4.59-11.27-10.68-16.89-11.36-9.18-1.1-14.85,2.16-23.1,5,5.36-4.29,17.24-28.27,22.22-29.83.96-.3,8.13-1.25,9.15-1.21,3.73.13,13.37,5.02,15.1,8.39,3.85,7.48-2.97,21.92-6.47,29.01Z"/><path class="cls-7" d="M130.87,620.36c2.61-4.37,7.74-9.04,12.12-11.69,13.18-7.99,14.91-1.04,25.15,5.22,3.76,2.3,8.11,4.34,12.25,5.85l-28.58,41.25c-1.67,1.2-2.82-3.94-3.17-4.44,3.51-7.1,10.33-21.53,6.47-29.01-1.74-3.37-11.37-8.26-15.1-8.39-1.02-.04-8.19.91-9.15,1.21Z"/><path class="cls-14" d="M538.45,715.59v1.9s-2.54-.63-2.54-.63c-.47-1.04-.45-2.64-.97-3.79-20.81-46.38-69.79-82.07-119.37-91.4-68.6-12.91-146.88,27.89-174.42,92.15-2.04,4.76-3.37,9.78-5.53,14.47-.23-.1-.83.17-1.21-.05l-.06-1.86c18.53-55.68,67.85-95.14,124.93-106.47,72.3-14.35,150.94,27.97,179.16,95.68Z"/><path class="cls-57" d="M497.82,985.4c-14.29.03-29.31-.05-43.48-1.91-7.51-.99-15.13-2.58-21.92-6.02-.7-.48-.61-1.01-.53-1.74.33-2.87,4.28-13.95,5.98-16.31,6.54-9.13,21.7-6.23,28.19,1.56,5.3,6.37,4.96,15.16,6.93,22.79.58.83,2.88.22,3.88.37.18.03.69.6,1.54.66,6.36.44,13.21-.91,19.41.61ZM464.16,977.78c-.96-8.59-5.25-19.08-15.23-19.68l15.23,19.68Z"/><path class="cls-102" d="M123.26,229.93c.92,1.14.48,1.81.15,2.97-5.51,19.22-12.01,37.63-12.85,57.98-13.83-2.1-24.76-10.15-33.01-20.95,7.75.84,14.45-1.11,20.63-5.71,8.95-6.66,19.24-24.35,25.08-34.28Z"/><path class="cls-42" d="M254.03,518.79l.31-3.17c3.16,3.09,7.63,4.94,11.63,6.78,59.94,27.45,140.51,32.72,204.05,15.9,19.67-5.21,37.53-13.38,56.48-20.33.84-.31,1.83-1.79,2.41-.77-.6.33-.9,1.27-1.27,1.59-3.1,2.72-14.27,7.17-18.62,9-80.79,34.03-177.02,30.36-255-9Z"/><path class="cls-48" d="M599.39,623.54l.03-3.12c5.68-2.49,11.31-5.13,16.42-8.68,1.99-1.38,3.3-4,6.07-4.42,5.53.29,19.5,8.61,20.04,13.98.21,2.06-.23,1.65-1.93,1.6-11.05-2.46-17.42-.7-20.5,10.92-1.44,5.43-.48,11.54-.45,17.01l-19.68-27.3Z"/><path class="cls-12" d="M74.37,599.41c5.94-7.24,9.83-13.31,17.13-20.01,4.82-4.41,17.02-15.48,23.69-13.65,6.1,7.12,1,15.09-2.62,22.02-2.66,5.09-6.28,9.97-9,14.81-3.34-8.83-6.73-12.35-16.65-9.35-4.67,1.41-8.1,5.38-12.56,6.17Z"/><path class="cls-87" d="M165.79,791.14c-9.29.06-18.37-2.26-27.3-4.46l4.76-5.06c.75-2.56,1.81-5.05,2.54-7.62,1.73-6.06,2.43-20.6,9.66-22.08,6.7-1.37,7.73,2.87,9.39,8.1,2.76,8.68,1.38,12.04.92,20.61-.19,3.48.19,7.03.03,10.5ZM158.17,786.69c.28-1.2-.68-1.5-1.27-2.22-.75-.92-8.12-8.19-8.89-7.3-.55,5.7,4.86,9.68,10.15,9.52Z"/><path class="cls-7" d="M661.61,566.4c-.34,2.39,1.62.56,3.13.97,8.05,2.16,11.82,9.01,17.52,13.62,1.89,1.53,4.76,2.41,6.02,3.44,1.08.88,10.17,11.2,10.7,12.21s1.4,2.58.09,3.41c-2.77-1.75-13.81-9.62-16.38-8.12-5.31,6.15-3.73,10.9-2.64,18.01.12.8-.67,1.46-.66,1.54-1.37.3-1.37-.74-1.9-1.56-5-7.76-10.86-16.89-14.93-25.09-2.31-4.67-7.09-14.79-.94-18.42Z"/><path class="cls-83" d="M699.06,269.93c-.49.68-.72,2.04-1.64,3.12-6.14,7.18-17.69,14.47-26.92,16.56-.04-17.41-6.8-33.73-8.89-50.79,9.36,14.3,18.34,29.74,37.46,31.11Z"/><path class="cls-31" d="M611.46,791.77l-1.3-18.7c-.1-3.96,1.72-15.25,3.83-18.44,1.71-2.6,4.86-3.39,7.81-2.71,9.77,2.25,6.21,30.02,16.31,34.46,0,1.81-23.83,5.03-26.65,5.4ZM624.15,784.79c-.32,1.27-1.39,4.01,1.18,2.44.3-.18,1.75-4.72,1.99-5.62.45-1.61,1.13-2.9,1.25-4.77.32-4.63-.61-11.28-5.7-13,.01,3.42,1.53,6.47,1.66,9.95s-.89,7.49-.39,11Z"/><path class="cls-57" d="M742.23,815.26c3.84,3.82,6.38,8.84,8.25,13.96-21.12,3.6-41.97,4.38-62.84-1.27-.66-.73,5.13-6.22,6.01-7,1.05-.93,2.07-1.25,2.87-1.89,14.86,7.42,29.8,5.62,44.04-2.02.89-.48,2.01-.25,1.67-1.79Z"/><path class="cls-5" d="M519.4,860.97c-28.39,36.63-63.63,55.43-108.56,65.71-25.84,5.91-47.9-.6-71.74-7.94l1.58-.63c-3.59-.45-6.66-2.33-9.83-3.81l30.31,8.09c16.25,4.13,34.89,5.29,51.23,1.39,41.41-9.87,79.28-29.82,106.37-62.81h.63Z"/><path class="cls-85" d="M431.16,926.36l-2.57,20.61c.23,4.69-.49,10.84,1.93,14.94-1.2,2.96-1.71,6.51-2.85,9.53-.81,1.21-1.65-.36-2.12-1.06-7.26-10.85-8.14-25.87-12.15-37.99.99-1.27,2.77-.92,4.3-1.39,4.51-1.4,8.99-3.1,13.46-4.63Z"/><path class="cls-78" d="M742.23,815.26c.34,1.54-.78,1.31-1.67,1.79-14.24,7.64-29.18,9.44-44.04,2.02,13.05-10.33,31.98-17.49,45.71-3.81ZM727.63,812.08c-3.66-4.07-16.16-1.23-15.87,5.08l15.87-5.08Z"/><path class="cls-91" d="M347.99,926.99c4.68,1.62,9.16,3.87,14.16,4.57l1,.86c-3.19,13.9-5.82,27.58-12.63,40.27-1.67.19-1-.03-1.27-.93-.99-3.3-1.79-6.7-3.16-9.86,1.83,1.18,1.02.53,1.36-.85,2.45-10.15,1.11-14.84.52-24.83-.17-2.9-.33-6.37.03-9.23Z"/><path class="cls-31" d="M681.92,817.8c-12.6-.31-21.22-3.57-27.11-15.1-.65-1.26-2.18-3.81-1.45-5.21,9.49-2.08,16.73-2.69,23.48,5.41,3.81,4.58,5.2,9,5.09,14.9ZM674.94,807.64c-1.97-3.85-6.54-6.19-10.79-6.34-.06.88-.18,1.21.43,1.93,1.13,1.31,9.05,5.38,10.36,4.41Z"/><path class="cls-80" d="M304.19,909.22c-45-22.24-82.08-75.3-83.84-126.65-.08-2.45.98-4.76.73-7-.31-2.74-1.93-4.25-1.37-8.28.17-1.22,1.32-.85,1.34-1.27.75-22.06,3.11-36.67,13.95-56.14-1.9,6.08-4.63,11.82-6.52,17.92-20.06,64.84,6.23,132.43,60.28,171.14,5.03,3.6,10.54,6.5,15.44,10.28Z"/><path class="cls-50" d="M551.78,544.82c22.41,64.96,41.39,134.55,50.15,202.84.48,3.78,1.41,7.38,1.27,11.11-.03.75.49,2.67-.63,2.54-2.01-6.74-1.64-14.24-2.59-21.22-9.27-67.48-30.4-128.66-49.09-193.43-.35-1.22-1.14-2.08.89-1.84Z"/><path class="cls-43" d="M815.24,872.4l1.27.31c-.98,1.37-2.74,2.39-3.81,3.49-23.11,10.64-45.66,22.3-70.46,28.89-28.29,7.52-74.25,11.91-101.73,2.04-1.01-.36-1.97-.6-2.39-1.74,60.63,12.06,109.14,2.06,163.38-25.49,4.31-2.19,9.77-4.92,13.74-7.52Z"/><path class="cls-96" d="M522.57,42.65c3.07.79,7.33,2.24,9.52,4.44-1.99,1.56-3.79,3.42-5.71,5.08-4.41,3.8-9.78,8.15-13.33,12.7l-12.7-5.08c7.63-6.72,13.83-11.43,22.22-17.14Z"/><path class="cls-110" d="M653.35,797.48c-.73,1.4.81,3.95,1.45,5.21,5.9,11.53,14.52,14.79,27.11,15.1-.04,2.2-.28,4.5-.66,6.65-.14.78.45,1.2-.86.9-4.42-1.61-8.76-3.4-13.01-5.41-3.77-1.79-27.57-14.15-26.74-17.68,3.5-2.55,8.49-3.85,12.7-4.78Z"/><path class="cls-88" d="M540.98,821.61l-2.51.36,4.22-12.93c6.76-25.44,6.34-51.7-.64-77.06-1.21-4.39-3.51-11.61-6.15-14.48-.1-.11.09-.45,0-.63l2.53.63v-1.9c14.25,34.19,16.04,71.26,2.55,106.02Z"/><path class="cls-2" d="M664.15,290.24l-.63,2.54c.99-2.7-1.02-5-1.28-6.72-11.2-75.54-43.74-121.36-103.48-167.23,57.66,37.87,99.82,101.6,105.38,171.41Z"/><path class="cls-23" d="M254.67,42.65c7.8,5.34,14.53,10.9,21.58,17.14l-2.73,2.04-9.97,3.68c-2.38-4.48-11.39-15.62-15.24-19.05.16-2.09,4.39-3.29,6.35-3.81Z"/><path class="cls-97" d="M234.35,726.38l.06,1.86c.37.22.98-.06,1.21.05.83.38.59.62.63.63-9.32,27.03-8.22,54.63-1.84,82.15.81,3.5,2.18,6.97,2.82,10.52.18.97.84,2.58-.35,3.19-12.6-32.56-13.6-65.16-2.54-98.4Z"/><path class="cls-44" d="M708.58,947.94c-33.14,8.96-76.47,10.93-109.83,2.54,3.23-2.71,5.91.04,8.6.6,7.35,1.52,12.17.43,18.99.64,2.36.07,6.12,1.84,8.98,1.87,2.57.03,6.1-1.09,8.79-1.23,6.56-.33,13.06,1.09,19.73.69,11.76-.71,24.32-2.15,35.87-4.13,2.84-.49,5.99-2.98,8.86-.97Z"/><path class="cls-60" d="M773.97,812.72c2.11-3.19,17.77,2.74,16.5,4.44l-34.59,10.81c-1.03-.54.04-1.14.29-1.61,2.92-5.4,4.63-6.79,9.54-9.82,1.68,1.39,6.42.42,8.25-.63.66-.38,2.4-2.47,3.17-3.17-1.04.06-2.14-.11-3.17,0Z"/><path class="cls-54" d="M330.85,914.3c3.17,1.48,6.24,3.37,9.83,3.81l-1.58.63c-33.54-10.32-64.09-32.49-84.43-60.95-.53-2.97,3.64,2,3.83,2.21,24.52,26.73,39.01,38.71,72.36,54.3Z"/><path class="cls-17" d="M110.56,405.78l.63,4.44c-9.18,4.77-17.96,21.74-14.6,31.74-2.15,1.65-3.96.41-5.71,1.27-2.63-15.95,6.97-29.11,19.68-37.46Z"/><path class="cls-67" d="M635.58,904.77h-1.9c.24.65.49,1.22.63,1.9-1.18-1.04-1.86.6-2.85.61s-1.79-.95-2.7-1.1c-6.31-1.08-12-2.56-18.04-4.8-1.73-.64-5.56-3.4-6.89-2.68-2.49,1.35-2.15,9.86-2.69,12.58-1.74,8.84-4.55,18.1-7.79,26.49l-.94-1.26c1.82-6.25,3.43-13.77,4.88-20.2,1.62-7.16,2.91-14.45,4.01-21.7,10.79,5.11,22.63,7.73,34.28,10.16Z"/><path class="cls-72" d="M650.81,626.08c-1.12.94-1.71.31-2.75-.07-2.43-.89-5.57-2.55-8.05-3.1,1.7.05,2.14.46,1.93-1.6-.54-5.38-14.51-13.7-20.04-13.98-2.76.42-4.08,3.04-6.07,4.42-5.11,3.55-10.74,6.19-16.42,8.68l-.03,3.12-3.17-3.8c4.35-1.32,9.27-3.81,13.14-6.23,3.82-2.4,9.34-8.32,13.83-8.38,11.4-.15,21.51,12.94,27.63,20.95Z"/><path class="cls-95" d="M704.78,602.59c-.1-.02-.77.71-1.9.37-1.61-.47-2.77-2.26-3.81-2.91,1.31-.83.44-2.41-.09-3.41s-9.62-11.32-10.7-12.21c-1.27-1.03-4.14-1.92-6.02-3.44-5.7-4.61-9.46-11.46-17.52-13.62-1.51-.4-3.47,1.42-3.13-.97,5.32-3.14,17.2,7.23,21.25,10.81,8.18,7.22,16.19,16.08,21.92,25.38Z"/><path class="cls-89" d="M535.27,825.42c.69-.26,1.63-1.85,3.17-1.27l-3.18,9.19,1.28-.94c-5.01,11.24-9.55,18.77-17.14,28.57h-.63c-.13-1.29.37-2.09.99-3.13,5.84-9.77,11.53-20.2,16.45-30.54.57-1.19.88-2.17-.93-1.89Z"/><path class="cls-74" d="M815.24,872.4c1.36-.89,5.09-4.66,6.04-5.07,1.95-.85.25,2.02-.06,2.48-5.77,8.59-15.05,16.95-22.48,24.18h-1.27s.63-2.54.63-2.54h-1.27c5.7-4.65,10.74-9.89,15.87-15.24,1.06-1.11,2.83-2.12,3.81-3.49l-1.27-.31Z"/><path class="cls-92" d="M707.95,606.4c10.74,11.82,14.06,18.8,21.58,32.38.19,1.99-.42,1.29-1.29.33-3.03-3.33-3.84-7.57-5.93-10.9-4.41-7.03-10.68-14.15-15.39-21.11l1.02-.7Z"/><path class="cls-26" d="M768.89,814.63c1.75.12,4.33-.71,5.08,1.27-1.83,1.06-6.57,2.03-8.25.63,1.28-.79,1.28-1.07,3.17-1.9Z"/><path class="cls-29" d="M773.97,812.72c1.03-.1,2.14.07,3.17,0-.77.7-2.51,2.79-3.17,3.17-.75-1.98-3.32-1.15-5.08-1.27,1.92-.85,2.67-1.66,5.08-1.9Z"/><path d="M229.78,211.07c46.12-4.71,88.05,42.32,89.64,86.48,2.62,72.97-84.32,114.8-129.13,52.95-28.95-39.97-19.26-133.43,39.49-139.42ZM229.28,228.03c-31.08,9.45-48.96,38.73-49.52,70.47-.8,45.63,35.14,87.11,83.17,75.23,36.73-9.09,55.39-48.73,50.79-84.12-5.41-41.62-41.11-74.76-84.43-61.58Z"/><path class="cls-1" d="M482.17,239.68c24.2-24.72,57.95-40.12,89.5-17.26,29.45,21.35,37.13,75.32,25.36,107.67-23,63.21-104.74,67.86-132.13,5.45-14.28-32.54-7.45-70.61,17.27-95.87ZM463.53,286.43c-6.27,38.12,13.69,80.04,53.83,88.06,56.45,11.27,91.65-49.74,75.68-99.48-7.94-24.74-30.09-48.78-57.77-49.52-2.34-1.03-6.04-.84-8.56-.62-34.33,2.88-57.74,28.51-63.18,61.57Z"/><path class="cls-38" d="M393.7,344.84l-2.54.93.95,55.56c-.97,2.17-5.47,2.73-7.61,3.18l-19.36-1.9c11.74,1.82,8.04-13.53,4.79-19.71-3.2-6.09-13.12-13.21-19.71-8.87-8.39,5.54,1.52,18.95,6.67,23.49h-1.27s0,.94,0,.94l3.17,1.6-.63.63c-9.3-2.64-19.38-6.59-23.49-15.87,1.44.08,1.65-.94,2.3-1.83,4-5.41,6.82-11.36,11.34-16.59,9.8-11.34,30-24.9,45.4-21.58Z"/><path class="cls-34" d="M425.9,215.81c-.08.18-1,.19-1.28.93-2,5.13-1.55,6.49-6.99,9.5-15.02,8.28-43.92,7.24-53.64-8.81-2.89-4.77-3.31-6.16-2.5-11.78,2.09-14.48,10.65-39.35,25.69-44.77,17.85-6.44,29.47,14.55,34,28.56,1.38,4.25,6.09,23.21,4.72,26.38ZM400.05,226.12c8.68-.58,17.85-3.76,22.67-11.18-1.48-14.62-8.85-45.96-25.21-50.4-18.19-4.93-27.01,20.66-30.42,34.01-2.21,8.63-5.16,13.29,2.16,19.96,6.42,5.86,15.02,7.68,23.51,8.23,2.12.14,5.43.45,7.29-.63Z"/><path class="cls-34" d="M387.19,82.8c21.45-3.62,31.18,23.29,34.79,39.82.59,2.69,2.36,10.21,2.22,12.41-.04.54-.13.99-.63,1.29-3.77.05-5.27,3.01-8.33,5-13.34,8.67-32.97,10.68-47.13,2.8-3.51-1.95-8.68-7.5-8.69-11.63-.03-14.15,11.67-46.97,27.77-49.69ZM393.7,144.23c9.76-.52,18.76-6,25.9-12.19l.2-.82c-1.01-6.76-2.64-13.44-4.98-19.86-3.51-9.63-10.18-24.15-21.76-24.9-14.43-.94-21.5,13.12-25.57,24.9-1.55,4.51-5.9,18.77-4.56,22.68,1.79,5.21,12.91,9.15,17.91,10.02,3.8.66,9.19,1.43,12.85.16Z"/><path class="cls-34" d="M510.37,135.52c14.23-1.62,32.55,5.31,40.66,17.39,5.84,8.69,6.36,19.21-1.79,26.56-17.58,15.86-55.61,4.28-61.41-18.59-3.58-14.1,9.85-23.92,22.54-25.36ZM512.93,139.33c-10.97.58-23.16,6.79-21.18,19.53,3.12,20.04,38.08,30.68,53.36,19.01,7.73-5.9,8.04-15.64,2.21-23.16-7.65-9.86-21.99-16.04-34.39-15.38Z"/><path class="cls-1" d="M257.08,135.53c15.94-1.62,36.21,6.75,31.58,25.86-5.94,24.49-53.96,36.42-65.55,12.18-9.34-19.54,17.09-36.32,33.97-38.04ZM259.62,139.34c-14.97.94-42.27,15.42-32.6,33.49,11.12,20.78,62.32,6.37,57.97-19.24-1.81-10.66-16.03-14.83-25.37-14.24Z"/><path class="cls-1" d="M393.7,344.84c-15.4-3.32-35.6,10.24-45.4,21.58-4.52,5.23-7.34,11.18-11.34,16.59-.65.88-.86,1.91-2.3,1.83-.24-.54-1.02-1.09-1.14-1.72-.64-3.5,8.94-16.78,11.61-19.87,10.31-11.95,31.1-25.41,47.46-23.32,16.94,2.17,46.99,24.52,50.38,41.71.52,2.64-1.44,3.55-3.24,1.93-.65-.58-4.33-7.98-5.51-9.72-8.94-13.14-24.74-25.6-40.51-29.01Z"/><path class="cls-15" d="M196.1,403.4c14.17-2.21,31.1,4.55,41.44,14.12,6.87,6.36,14.81,19.24,6.68,27.65-16.21,16.76-61.36-5.7-61.34-28.27,0-6.59,7.04-12.54,13.22-13.5ZM201.85,406.6c-16.7.9-18.84,12.89-9.09,24.58,6.47,7.76,19.88,14.83,29.93,15.78,13,1.24,26.4-3.67,18.88-18.88-6.14-12.42-26.23-22.21-39.72-21.48Z"/><path class="cls-9" d="M567.49,403.41c15.01-1.89,32.13,3.54,24.39,21.85-5.59,13.24-26,24.29-39.87,25.52-19.51,1.73-29.72-11.48-17.36-28.16,6.54-8.82,21.92-17.84,32.84-19.21ZM582.03,433.5c6.48-6.54,13.12-19.64,1.64-25-11.72-5.47-30.36,1.48-39.81,9.37-15.99,13.37-14.85,31.16,9.49,29.17,9.06-.74,22.27-7.08,28.67-13.54Z"/><path d="M420.85,372.93c13.16-1.6,8.92,14.31,3.01,20.79-3.16,3.47-11.9,10.35-16.67,8.4-8.53-3.5-.58-21.84,4.96-25.82,1.99-1.43,6.28-3.08,8.7-3.37Z"/><path d="M365.13,402.61c-.71-.11-1.94-1.02-3.17-1.27-1.27-1.83-3.48-2.4-5.08-3.81-5.15-4.54-15.06-17.95-6.67-23.49,6.59-4.35,16.51,2.78,19.71,8.87,3.25,6.18,6.96,21.52-4.79,19.71Z"/><path class="cls-11" d="M356.88,397.53c1.6,1.41,3.81,1.97,5.08,3.81-1.35-.27-2.05-.14-3.81-.63l.63-.63-3.17-1.6v-.94s1.26,0,1.26,0Z"/><path class="cls-10" d="M535.91,716.86c.09.19-.1.53,0,.63-30.55,12.28-63.55,17.2-96.19,20.94-58.1,6.67-119.94,6.04-177.56-3.99-7.6-1.32-18.85-3.07-25.9-5.53-.04-.01.2-.26-.63-.63,2.16-4.69,3.49-9.71,5.53-14.47,27.54-64.26,105.82-105.06,174.42-92.15,49.58,9.33,98.56,45.02,119.37,91.4.52,1.15.5,2.75.97,3.79Z"/><path class="cls-33" d="M244.51,43.92c-2.94-.16.51,2.07,0,4.11s-3.76-.85-4.43-.3c-.16.13.14,1.05,0,1.27-12.7-9.53-25.95-14.02-41.13-18.23-2.32-.64-19.82-4.13-19.8-5.58,4.13-4.33,11.78-2.24,17.14-1.28,16.25,2.91,35.08,10.03,48.23,20.01Z"/><path class="cls-113" d="M244.51,43.92c1.15.87,3.36,2.14,3.81,2.54,3.85,3.43,12.86,14.56,15.24,19.05.39.74.34,2.14,1.25,2.86l-.94.94c-.56-1.3-2.24-1.44-2.86-1.89-6.96-5.18-13.49-12.81-20.95-18.41.14-.22-.16-1.13,0-1.27.67-.55,3.93,2.28,4.43.3s-2.93-4.27,0-4.11Z"/><path class="cls-94" d="M539.08,49.63c6.99,2.69,15.88,7.7,22.42,11.55,7.34,4.33,14.33,9.38,21.38,14.16l-17.13,19.36c-.46-.35-1.03-1.47-1.95-2.17-14.07-10.75-31.88-17.89-46.93-27.03,4.9-4.16,10.57-8.43,15.87-12.06,1.86-1.28,4.16-2,5.71-3.81.19.07.45-.07.63,0Z"/><path class="cls-90" d="M539.08,49.63c-.18-.07-.45.07-.63,0-1-.37-2.9-.72-3.21-.93-.88-.61-.05-2.88-1.87-2.24,12.83-9.7,38.65-22.97,54.91-21.57,2.79.24,7.1,1.13,2.41,3.02-4.91,1.98-11.19,2.88-16.38,4.57-12.42,4.04-24.5,9.74-35.22,17.15Z"/><path class="cls-8" d="M533.37,46.46c1.82-.64.99,1.64,1.87,2.24.31.21,2.21.56,3.21.93-1.56,1.81-3.85,2.53-5.71,3.81-6.76,1.1-11.13,8.22-17.14,10.79,3.33-3.98,7.61-6.94,11.11-10.79.86-.94,1.79-1.4-.32-1.27,1.92-1.66,3.72-3.52,5.71-5.08.34-.27.92-.37,1.27-.63Z"/><path class="cls-28" d="M57.87,348.65c.11-11.45,8.18-28.46,21.38-28.97.65-.02,3.98.38,2.75,1.66-4.24,1.46-8.23,4.91-11.12,8.26-2.67,3.1-7.45,10.34-9.2,13.97.18-2.05-.46-1.43-1.12-.17-.87,1.64-1.38,3.76-2.69,5.25Z"/><path class="cls-6" d="M61.68,343.57c-1.79,3.72-1.42,8.02-3.8,10.79,0-1.9-.02-3.81,0-5.71,1.3-1.49,1.82-3.61,2.69-5.25.66-1.26,1.3-1.88,1.12.17Z"/><path class="cls-55" d="M270.54,953.03l-3.49,8.25c-1.72,5.98-3,11.87-3.5,18.09-.08.94.52,1.85-.94,1.58-5.78-8.43-1.16-23.96,7.92-27.92Z"/><path class="cls-59" d="M313.71,977.78c-1.27.24-1.53-.58-1.95-1.53-1.85-4.22,1.02-11.17,5.12-13.07l-3.17,14.6Z"/><path class="cls-56" d="M113.1,215.96c-2.67,1.22-5.92,2.01-8.48,3.27-9.31,4.6-15.84,13.12-22.25,20.94-.54.66,0,1.59-1.65,1.19,2.34-10.82,13.84-27.26,25.81-27.88,2.17-.11,5.58.28,6.56,2.48Z"/><path class="cls-77" d="M712.39,334.68c-1.64.75.64,4.31,0,5.08-.77-.15-1.18-1.39-1.9-.64-3.09-4.32-10.71-12.97-15.04-15.75-2.42-1.55-6.12-2.57-8.03-4.03-.71-.55-1.3-.66-1.05-1.8,11.33-2.6,20.96,8.17,26.03,17.13Z"/><path class="cls-35" d="M712.39,334.68c2.89,5.12,5.04,9.92,5.71,15.87-1.62.37-1.11-.44-1.64-1.19-2.13-3.01-3.89-7.32-5.97-10.23.72-.75,1.12.49,1.9.64.65-.77-1.63-4.33,0-5.08Z"/><path class="cls-37" d="M216.58,948.58l.33.64,2.84-1.27-.5,2.17.5.37c-5.45,7.22-7.02,12.2-9.51,20.66-.27.92.36,1.11-1.28.92-3.1-8.47.92-18,7.61-23.49Z"/><path class="cls-114" d="M216.58,948.58c2.53-2.07,4.56-4.06,8.25-3.81-.05,2.11-2.8,2.5-4.09,3.87-.54.57-.64,1.38-.99,1.84l-.5-.37.5-2.17-2.84,1.27-.33-.64Z"/><path class="cls-106" d="M566.38,959.37l-3.66-6.19-.79.48c-1.38-3.28-3.76-7.41-5.83-10.36-1.83-2.6-3.9-4.94-6.23-7.11-.71-1.72,2.38-.69,3-.45,8.83,3.38,12.48,15.11,13.5,23.64Z"/><path class="cls-112" d="M561.93,953.66l.79-.48,3.66,6.19c.2,1.66.64,3.9.66,5.39.01,1.26-.09,1.02-1.28.96-1.24-3.97-2.2-8.22-3.82-12.06Z"/><path class="cls-101" d="M699.06,233.11h-3.17s.63,1.27.63,1.27c-.15-.14-1.07-.14-1.59-.61-8.57-7.73-17.3-15.59-28.89-18.44.84-3.96,6.14-2.39,8.89-1.58,10.18,2.98,18.16,11.27,24.12,19.36Z"/><path class="cls-3" d="M699.06,233.11c2.44,3.31,4.85,6.17,6.35,10.15-1.25.29-1.51-.64-2.16-1.32-2.17-2.24-4.43-5.44-6.73-7.56l-.63-1.26h3.17Z"/><path class="cls-105" d="M424.13,50.88c-1.53.97-4.53-3.84-5.3-5.1-2.59-4.22-4.17-9.28-6.61-13.71-1.28-2.32-8.85-12.7-8.09-14.17.54-1.04,2.33-1.89,3.54-1.64,5.41,1.11,16.14,20.91,16.98,26.23.22,1.42.39,7.81-.52,8.39Z"/><path class="cls-75" d="M111.19,410.23c1.23-.64,3.06-1.89,4.44-.96-8.95,8.82-15.7,22.06-17.14,34.6-1.28.45-1.61-1.03-1.9-1.9-3.35-10,5.42-26.98,14.6-31.74Z"/><path class="cls-4" d="M677.47,438.16c-1.34,1.49-4.36-6.91-4.75-7.63-1.86-3.46-9.15-17.35-11.8-18.7-1.04-.53-3.86.03-2.47-2.2.17-.28,2.73-.74,3.4-.67,8.17.78,15.72,21.89,15.61,29.2Z"/><path class="cls-52" d="M506.7,951.12c3.47,2.89,3.8,3.66,5.71,7.62-1.73,2.47,1.59,5.58,1.26,8.25l-3.27-5.29-1.17.22c-1.75-2.84-4.91-6.19-6.35-8.89-.09-.17.84-1.77-1.27-3.17.74-.63,3.86,2.97,5.08,1.26Z"/><path class="cls-93" d="M512.42,958.74c2.42,4.98,4.44,10.33,5.08,15.87-1.3.27-1.47-.65-2.03-1.46-2.25-3.33-4.07-7.73-6.22-11.23l1.17-.22,3.27,5.29c.33-2.67-3-5.78-1.26-8.25Z"/><path class="cls-46" d="M502.89,953.02c-1.7-1.07-3.4-2.29-4.9-3.63-.3-.27-1.75-.41-.81-1.44,1.15-1.26,5.24-.17,6.6.71.33.22,2.33,1.96,2.92,2.45-1.22,1.7-4.34-1.9-5.08-1.26,2.11,1.4,1.18,3,1.27,3.17Z"/><path class="cls-51" d="M526.38,52.17c2.11-.13,1.17.33.32,1.27-3.5,3.84-7.78,6.8-11.11,10.79,6.01-2.56,10.38-9.69,17.14-10.79-5.3,3.64-10.98,7.9-15.87,12.06-2.12,1.81-3.92,3.96-6.03,5.71-.71.59-1.03,1.54-2.22,1.27-.55-.55,3.77-6.76,4.44-7.61,3.56-4.55,8.93-8.89,13.33-12.7Z"/><path class="cls-76" d="M125.15,769.55c-3.99-4.04-7.23-13.72-4.75-19.04,2.61,5.99,4.16,12.52,4.75,19.04Z"/><path class="cls-30" d="M647.01,774.63c2.24-8.85,10.01-17.87,9.16-27.26-.05-.52-.79-1.92.67-1.31.42.18,1.9,1.81,2.15,2.3,3.7,7.23-5.38,22.44-11.97,26.26Z"/><path class="cls-47" d="M464.16,977.78l-15.23-19.68c9.97.6,14.27,11.08,15.23,19.68Z"/><path class="cls-39" d="M158.17,786.69c-5.29.16-10.7-3.82-10.15-9.52.77-.89,8.13,6.38,8.89,7.3.59.72,1.54,1.02,1.27,2.22Z"/><path class="cls-71" d="M627.32,781.61l-.63-2.53c-1.68,2.12-1.89,3.09-2.55,5.71-.5-3.51.51-7.69.39-11-.13-3.48-1.65-6.53-1.66-9.95,5.08,1.72,6.01,8.37,5.7,13-.13,1.87-.81,3.17-1.25,4.77Z"/><path class="cls-81" d="M627.32,781.61c-.25.89-1.7,5.43-1.99,5.62-2.57,1.57-1.5-1.17-1.18-2.44.66-2.62.87-3.59,2.55-5.71l.63,2.53Z"/><path class="cls-73" d="M727.63,812.08l-15.87,5.08c-.3-6.31,12.21-9.15,15.87-5.08Z"/><path class="cls-21" d="M674.94,807.64c-1.3.97-9.23-3.1-10.36-4.41-.61-.72-.49-1.04-.43-1.93,4.25.15,8.82,2.49,10.79,6.34Z"/><path class="cls-111" d="M313.71,289.61c4.6,35.39-14.05,75.03-50.79,84.12-48.03,11.88-83.96-29.6-83.17-75.23.92-.09,1.88-1.06,2.54-1.27,2.14-.69,4.08-1.12,6.35-1.9.47-.16,2.38-.83,2.54-.63-.57,1.53.45,2.81.64,3.81,2.11,11.19,3.48,19.2,10.27,28.77,31.57,44.46,99.43,26.99,106.54-26.86.02-.14.58-.68.66-1.53.3-2.92-.27-6.28-.03-9.26h4.45Z"/><path class="cls-16" d="M313.71,289.61h-4.45c-.24,2.98.33,6.34.03,9.26-.09.85-.64,1.4-.66,1.53,2.01-20.69-6.48-41.24-22.85-53.96,2.09.14,1.19-.33.32-1.27-8.27-8.81-29.93-13.53-41.82-12.62-19.72,1.51-41.76,17.99-50.03,35.68-3.99,8.54-6.25,17.62-5.61,27.09-2.27.79-4.21,1.21-6.35,1.9-.32-3.69.15-7.93.81-11.57,1.97-10.98,5.63-21.38,12-30.54,8.61-12.37,21.94-22.8,36.71-26.46l-2.54-.63c43.32-13.18,79.03,19.96,84.43,61.58Z"/><path class="cls-41" d="M229.28,228.03l2.54.63c-14.77,3.66-28.1,14.09-36.71,26.46-6.37,9.15-10.03,19.56-12,30.54-.65,3.65-1.13,7.89-.81,11.57-.66.21-1.62,1.18-2.54,1.27.55-31.74,18.44-61.02,49.52-70.47Z"/><path class="cls-111" d="M584.15,272.47c1.01.19,3.09.93,4.44,1.27,1.45.37,3,.84,4.44,1.27,15.98,49.75-19.23,110.76-75.68,99.48-40.15-8.02-60.1-49.94-53.83-88.06,2.12.45,2.94-.85,4.44-1.9.03,1.05-.02,2.12,0,3.17.63,23.6,5.94,41.96,26.72,55.5,46.82,30.49,104.88-16.3,87.56-68.83v-1.91c.61.07,1.34-.1,1.9,0Z"/><path class="cls-100" d="M535.27,225.49c-.69-.02-2.69-.45-2.53.63,14.9,3.83,27.22,7.42,38.73,18.09,4.27,3.96,5.8,6.95,9.17,11.16,3.12,3.91,6.4,11.48,8.57,16.81.47,1.16,1.4,1.77-.61,1.56-1.36-.34-3.44-1.08-4.44-1.27-1.86-6.57-7.2-15.82-12.38-20.31-.67-.58-1.86-.69-2.54-1.27-8.5-7.3-14.65-13.84-26.06-15.84-.99-.17-2.83-.4-3.46.61-30.3-6.66-61,11.68-69.37,41.41-.99,3.53-1.56,7.08-2.37,10.64-.03-1.06.03-2.12,0-3.17-1.5,1.06-2.32,2.36-4.44,1.9,5.44-33.06,28.85-58.69,63.18-61.57,2.52-.21,6.22-.4,8.56.62Z"/><path class="cls-66" d="M535.27,225.49c27.68.74,49.83,24.78,57.77,49.52-1.44-.43-2.99-.9-4.44-1.27,2.01.21,1.08-.4.61-1.56-2.18-5.33-5.45-12.9-8.57-16.81-3.37-4.21-4.9-7.2-9.17-11.16-11.51-10.67-23.83-14.26-38.73-18.09-.15-1.08,1.85-.65,2.53-.63Z"/><path class="cls-86" d="M397.51,164.54c-2.08-.23-1.58-.16-2.09,1.38-4.14,12.63-4.28,34.51-2.99,47.81.4,4.1,1.24,8.26,1.96,12.32.26.22,4.69.13,5.65.07-1.87,1.08-5.17.77-7.29.63-8.5-.55-17.09-2.38-23.51-8.23-7.32-6.68-4.36-11.33-2.16-19.96,3.42-13.36,12.23-38.95,30.42-34.01Z"/><path class="cls-20" d="M397.51,164.54c16.37,4.44,23.74,35.78,25.21,50.4-4.82,7.42-13.99,10.6-22.67,11.18-.96.06-5.39.15-5.65-.07-.73-4.05-1.56-8.21-1.96-12.32-1.3-13.3-1.15-35.18,2.99-47.81.51-1.54,0-1.61,2.09-1.38ZM415.28,208.98c.93-6.12.1-13.98-2.05-19.84-1.26-3.43-3.67-9.07-8.09-7.43-1.02,1.44,6.77,22.77,8.4,25.53.41.7.86,1.57,1.74,1.75Z"/><path class="cls-32" d="M393.07,86.46c11.57.75,18.25,15.27,21.76,24.9,2.34,6.42,3.97,13.1,4.98,19.86l-.2.82c-7.14,6.19-16.15,11.67-25.9,12.19-.87.05-3.37.34-3.88-.37-1.97-19.08-2.27-38.91,3.25-57.4ZM410.21,120.74c.69,1.2,1.35,4.67,3.17,4.45,1.18-2.87-.24-4.65-.49-6.84-.12-1.1.02-2.48-.15-3.32-.88-4.5-2.18-8-5.38-11.44-1.21-1.31-5.2-4.29-6.01-1.51-.37,1.27,7.55,16.38,8.86,18.66Z"/><path class="cls-61" d="M393.07,86.46c-5.52,18.5-5.21,38.32-3.25,57.4.52.71,3.01.42,3.88.37-3.66,1.27-9.05.5-12.85-.16-4.99-.87-16.12-4.81-17.91-10.02-1.34-3.91,3-18.18,4.56-22.68,4.07-11.79,11.14-25.84,25.57-24.9Z"/><path class="cls-70" d="M512.93,139.33c12.4-.66,26.74,5.53,34.39,15.38,5.84,7.52,5.52,17.25-2.21,23.16-15.28,11.67-50.24,1.03-53.36-19.01-1.98-12.74,10.21-18.95,21.18-19.53Z"/><path class="cls-103" d="M259.62,139.34c9.34-.58,23.56,3.58,25.37,14.24,4.35,25.62-46.85,40.02-57.97,19.24-9.67-18.07,17.63-32.55,32.6-33.49Z"/><path class="cls-18" d="M201.85,406.6c13.49-.73,33.58,9.06,39.72,21.48,7.52,15.22-5.88,20.12-18.88,18.88-10.04-.96-23.46-8.03-29.93-15.78-9.75-11.69-7.61-23.68,9.09-24.58ZM200.54,408.48c-3.53.52-10.75,3.75-11.26,7.83-.11.84.53,4.52.8,5.5,4.07,14.95,33.96,29.32,47.39,21.06,4.58-2.82,5.12-8.18,2.72-12.77-5.89-11.26-26.95-23.47-39.65-21.62Z"/><path class="cls-45" d="M582.03,433.5c-6.41,6.47-19.61,12.8-28.67,13.54-24.34,1.99-25.49-15.8-9.49-29.17,9.44-7.89,28.08-14.84,39.81-9.37,11.48,5.36,4.84,18.46-1.64,25ZM570.67,408.48c-11.2,1.19-34.96,13.41-35.43,26.21-.48,13.06,20.29,10.14,28.11,7.75,8.69-2.66,21.65-11.82,24.11-20.96,2.53-9.38-9.27-13.8-16.79-13Z"/><path d="M285.78,246.44c16.38,12.73,24.86,33.27,22.85,53.96-7.11,53.85-74.97,71.33-106.54,26.86-6.79-9.57-8.16-17.58-10.27-28.77-2.71-29.02,17.18-56.45,45.59-62.65,16.4-3.58,35.04.24,48.36,10.59ZM256.42,243.43c-35.27,4.77-32.82,60.23,9.35,56.33,36.69-3.39,31.99-61.92-9.35-56.33Z"/><path class="cls-65" d="M188.64,295.32c-.64-9.46,1.61-18.55,5.61-27.09,8.26-17.69,30.31-34.17,50.03-35.68,11.89-.91,33.55,3.81,41.82,12.62.88.93,1.77,1.41-.32,1.27-13.32-10.35-31.96-14.17-48.36-10.59-28.41,6.2-48.3,33.63-45.59,62.65-.19-1-1.21-2.28-.64-3.81-.16-.19-2.07.47-2.54.63Z"/><path d="M539.72,235.65c18.51,4.07,36.62,20.81,42.53,38.73,17.33,52.52-40.73,99.32-87.56,68.83-20.78-13.53-26.09-31.9-26.72-55.5.81-3.56,1.38-7.11,2.37-10.64,8.37-29.73,39.07-48.08,69.37-41.41ZM511.01,242.81c-35.48,4.3-31.15,61.79,10.45,56.16,36.11-4.88,31.54-61.25-10.45-56.16Z"/><path class="cls-99" d="M584.15,272.47c-.56-.11-1.29.06-1.9,0v1.91c-5.92-17.92-24.03-34.65-42.54-38.73.63-1.01,2.47-.78,3.46-.61,11.41,2,17.56,8.54,26.06,15.84.68.58,1.86.69,2.54,1.27,5.18,4.5,10.52,13.74,12.38,20.31Z"/><path class="cls-104" d="M415.28,208.98c-.87-.17-1.33-1.05-1.74-1.75-1.63-2.76-9.42-24.09-8.4-25.53,4.42-1.63,6.83,4,8.09,7.43,2.15,5.86,2.98,13.72,2.05,19.84Z"/><path class="cls-98" d="M412.75,115.02l-.73,4.05-1.81.4v1.27c-1.31-2.28-9.23-17.39-8.86-18.66.81-2.79,4.8.2,6.01,1.51,3.2,3.44,4.51,6.94,5.38,11.44Z"/><path class="cls-84" d="M412.75,115.02c.16.84.02,2.22.15,3.32.24,2.18,1.66,3.96.49,6.84-1.82.23-2.48-3.25-3.17-4.45v-1.27s1.81-.4,1.81-.4l.73-4.05Z"/><path class="cls-24" d="M200.54,408.48c12.7-1.85,33.77,10.36,39.65,21.62,2.4,4.59,1.85,9.95-2.72,12.77-13.43,8.27-43.33-6.11-47.39-21.06-.27-.98-.91-4.66-.8-5.5.51-4.08,7.73-7.32,11.26-7.83Z"/><path class="cls-24" d="M570.67,408.48c7.52-.8,19.32,3.61,16.79,13-2.46,9.14-15.42,18.29-24.11,20.96-7.81,2.39-28.59,5.31-28.11-7.75.47-12.8,24.23-25.01,35.43-26.21Z"/><path class="cls-111" d="M256.42,243.43c41.33-5.59,46.04,52.93,9.35,56.33-42.17,3.9-44.62-51.56-9.35-56.33Z"/><path class="cls-111" d="M511.01,242.81c41.99-5.09,46.56,51.27,10.45,56.16-41.6,5.63-45.93-51.86-10.45-56.16Z"/></svg>